<svg transform="scale(4)" id="CGjKATky1I" xmlns="http://www.w3.org/2000/svg" xmlns:xlink="http://www.w3.org/1999/xlink" viewBox="0 0 500 500" class="pbimage_pbimage__wrapper__image__0LEis false"><title>Coding 6</title><defs><style> .cls-1{fill:url(#linear-gradient-CGjKATky1I);} .cls-1, .cls-2, .cls-3, .cls-4, .cls-5, .cls-6, .cls-7, .cls-8, .cls-9, .cls-10, .cls-11, .cls-12, .cls-13, .cls-14{stroke-width:0px;} .cls-2{isolation:isolate;opacity:.18;} .cls-2, .cls-14{fill:#68e1fd;} .cls-3{fill:url(#linear-gradient-4-CGjKATky1I);} .cls-4{fill:url(#linear-gradient-2-CGjKATky1I);} .cls-5{fill:url(#linear-gradient-3-CGjKATky1I);} .cls-6{fill:url(#linear-gradient-8-CGjKATky1I);} .cls-7{fill:url(#linear-gradient-7-CGjKATky1I);} .cls-8{fill:url(#linear-gradient-5-CGjKATky1I);} .cls-9{fill:url(#linear-gradient-6-CGjKATky1I);} .cls-10{fill:#231f20;} .cls-11{fill:#ce807a;} .cls-12{fill:#fff;} .cls-13{fill:#ffb4a3;}
 .cls-2, .cls-14{fill:#68E1FD;}
 .cls-13{fill:#FFB4A3;}
 .cls-12{fill:#FFFFFF;}
 .cls-11{fill:#CE807A;}
 .cls-10{fill:#231F20;}</style><linearGradient id="linear-gradient-CGjKATky1I" x1="400.22" y1="296.93" x2="405.24" y2="407.44" gradientUnits="userSpaceOnUse"><stop offset="0" stop-color="#000" style="stop-color: rgb(0, 0, 0);"></stop><stop offset=".08" stop-color="#000" stop-opacity=".69" style="stop-color: rgb(0, 0, 0);"></stop><stop offset=".37" stop-color="#000" stop-opacity=".32" style="stop-color: rgb(0, 0, 0);"></stop><stop offset="1" stop-color="#000" stop-opacity="0" style="stop-color: rgb(0, 0, 0);"></stop></linearGradient><linearGradient id="linear-gradient-2-CGjKATky1I" x1="213.29" y1="305.42" x2="218.32" y2="415.94" xlink:href="#linear-gradient-CGjKATky1I"></linearGradient><linearGradient id="linear-gradient-3-CGjKATky1I" x1="137.67" y1="432.98" x2="204.65" y2="262.19" xlink:href="#linear-gradient-CGjKATky1I"></linearGradient><linearGradient id="linear-gradient-4-CGjKATky1I" x1="72.42" y1="662.67" x2="193.27" y2="110.24" xlink:href="#linear-gradient-CGjKATky1I"></linearGradient><linearGradient id="linear-gradient-5-CGjKATky1I" x1="94.2" y1="281.22" x2="9.23" y2="414.99" xlink:href="#linear-gradient-CGjKATky1I"></linearGradient><linearGradient id="linear-gradient-6-CGjKATky1I" x1="115.23" y1="407.46" x2="116.71" y2="460.85" xlink:href="#linear-gradient-CGjKATky1I"></linearGradient><linearGradient id="linear-gradient-7-CGjKATky1I" x1="320.46" y1="279.73" x2="419.81" y2="427.64" gradientUnits="userSpaceOnUse"><stop offset="0" stop-color="#000" style="stop-color: rgb(0, 0, 0);"></stop><stop offset=".08" stop-color="#000" stop-opacity=".69" style="stop-color: rgb(0, 0, 0);"></stop><stop offset=".21" stop-color="#000" stop-opacity=".32" style="stop-color: rgb(0, 0, 0);"></stop><stop offset="1" stop-color="#000" stop-opacity="0" style="stop-color: rgb(0, 0, 0);"></stop></linearGradient><linearGradient id="linear-gradient-8-CGjKATky1I" x1="231.77" y1="132.81" x2="461.72" y2="358.3" xlink:href="#linear-gradient-7-CGjKATky1I"></linearGradient></defs><path class="cls-2" id="background" d="M474.08,356.36c-13.92,22.03-33.87,39.6-54.84,55.09-3.51,2.6-7.06,5.14-10.66,7.62-3.19,2.21-6.42,4.37-9.68,6.47-12.56,8.11-25.65,15.38-39.37,21.31-36,15.54-75.24,21.43-114.55,23.47-5.9.32-11.81.54-17.71.69-1.65.05-3.3.09-4.96.12-.85.02-1.7.03-2.55.05-2.37.04-4.75.07-7.13.09-11.18.11-22.39-.04-33.56-.68-6.11-.34-12.21-.83-18.28-1.5-10.83-1.19-21.58-2.96-32.19-5.51-2.05-.49-4.09-1.02-6.12-1.59-4.37-1.2-8.67-2.55-12.92-4.06-13.25-4.67-25.9-10.8-37.88-18.38C27.04,411.28-.88,348.2,9.35,296.3c5.51-27.92,20.43-52.98,30.04-79.76,12.06-33.62,16.58-71.57,40.12-98.43,12.75-14.53,29.99-24.36,47.59-32.37,28.93-13.16,60.15-22.18,91.94-22.64,31.78-.46,64.21,8.1,89.57,27.27,19.91,15.06,35.08,36.16,56.66,48.71,15.24,8.86,32.77,12.88,48.88,20.03,35.64,15.79,63.79,47.61,75.12,84.91,11.33,37.29,5.64,79.4-15.19,112.34Z"></path><g id="table"><path class="cls-14" d="M408.58,323.29v95.78c-3.19,2.21-6.42,4.37-9.68,6.47v-102.25h9.68Z"></path><path class="cls-14" d="M222.31,323.29v147.84c-.85.02-1.7.03-2.55.05-2.37.04-4.75.07-7.13.09v-147.98h9.68Z"></path><path class="cls-1" d="M408.58,323.29v95.78c-3.19,2.21-6.42,4.37-9.68,6.47v-102.25h9.68Z"></path><path class="cls-4" d="M222.31,323.29v147.84c-.85.02-1.7.03-2.55.05-2.37.04-4.75.07-7.13.09v-147.98h9.68Z"></path><rect class="cls-14" x="179.25" y="318.75" width="265.02" height="9.08"></rect></g><g id="character"><path class="cls-14" d="M242.32,277.46l-43.96-10.67,1.06-4.38,43.96,10.67c1.21.29,4.4,2.39,4.1,3.6h0c-.29,1.21-3.96,1.07-5.16.78Z"></path><path class="cls-11" d="M202.54,394.95l-3.38,10.91h0l-1.35,4.35-3.46,11.18-15.27,49.2c-6.11-.34-12.21-.83-18.28-1.5l-.18-57.26-.02-5.17-.02-5.85,2.29-.32,39.68-5.54Z"></path><path class="cls-13" d="M244.98,470.32c-5.9.32-11.81.54-17.71.69l-4.96-7.47-9.68-14.59-18.29-27.56-12.79-16.61,12.77,4.47,4.84-3.39,13.47-9.45,7.26-5.09,2.04,6.44.38,1.18,22.67,71.38Z"></path><path class="cls-13" d="M161.21,289.3c.09.09.17.18.26.27,2.98,3.34,6.43,6.24,10.21,8.58,9.12-5.94,18.48-11.5,28.04-16.66,2.03-1.1,3.87-2.45,4.8-4.66.88-2.1,2-4.09,3.33-5.92,1.55-2.14,3.48-4.11,5.93-5.04,3.5-1.33,7.41-.3,10.96.89,1.55.52,3.09,1.07,4.62,1.64.81.31,1.81,1.05,1.41,1.84-.29.57-1.08.56-1.71.52-2.17-.15-4.55.33-5.96,2.02-.87,1.04-1.25,2.41-1.66,3.72-.66,2.13-1.45,4.22-2.37,6.26-.55,1.24-1.17,2.48-2.1,3.45-1.56,1.63-3.2,2.94-5.44,2.94,0,0-36.03,31.4-44.46,29.76-8.43-1.63-25.77-19.74-25.78-19.75.08.11,9.72-6.52,10.63-7.11,2.87-1.86,6.33-5.61,9.29-2.73Z"></path><path class="cls-13" d="M117.91,192.41c1.19.5,2.38,1.08,3.3,1.98.96.93,1.58,2.15,2.12,3.37,1.05,2.36,1.88,4.82,3.21,7.04s3.23,4.21,5.7,4.98c.88.27,1.9.45,2.4,1.22.39.61.32,1.43-.01,2.08s-.86,1.16-1.39,1.66c-3.26,3.08-1.92,8.74-3.19,13.04-.25.86-.58,1.73-1.23,2.35-.63.61-1.5.91-2.35,1.15-1.65.48-3.35.82-5.07.85-1.64.03-3.34-.23-4.87.35-.15.06-.37.1-.44-.05-.23-.53-1.29-.12-1.64.34s-.41,1.06-.46,1.64c-.38,4.56-.16,9.17.65,13.67-7.32.61-14.28-3.43-21.61-3.76,1.79-7.41,2.07-15.17.84-22.69-.54-3.28-1.36-6.52-1.76-9.82-.26-2.19-.33-4.47.4-6.55.71-2.04,2.14-3.75,3.68-5.26,5.38-5.27,14.78-10.52,21.72-7.58Z"></path><path class="cls-10" d="M116.32,187.49c.55,1.24,1.8,2.1,2.19,3.39.18.6.15,1.24.11,1.86-.18,2.5-.65,5.01-1.65,7.31s-2.52,4.41-4.57,5.86c-.93.66-1.96,1.18-2.92,1.8-.3.19-.6.41-.73.74-.23.59.2,1.21.52,1.76.92,1.55,1.1,3.46.85,5.24s-.89,3.49-1.53,5.18c-1.27,3.36-1.85,6.82-.44,10.12.61,1.43,1.58,2.69,2.59,3.88,3.31,3.88,7.25,7.23,11.62,9.85-4.01,2.76-8.87,4.11-13.72,4.55-4.85.44-9.74,0-14.57-.57-9.14-1.06-18.49-2.67-26.37-7.42,2.45-1.97,4.09-4.78,5.42-7.62,1.22-2.59,2.25-5.3,2.66-8.13.42-2.85.2-5.75.12-8.64-.14-4.5.05-9.08,1.37-13.38s3.9-8.35,7.71-10.75c1.78-1.12,3.76-1.85,5.76-2.48,8.04-2.55,17.14-2.99,25.57-2.56Z"></path><path class="cls-14" d="M77.74,258.64s2.32-8.2,16.33-10.17c14.01-1.97,31.51,1.85,37.75,8.61,6.24,6.76,33.05,34.72,33.05,34.72l-22.42,21.03-10.63-7.86c.08,8.24.52,16.51,1.32,24.71.57,5.92,1.24,11.95,2.79,17.71,1.68,6.26,4.29,9.89-2.04,15.01-2.51,2.02-5.47,3.38-8.31,4.9-12.93,6.96-24.32,18.05-38.88,19.89-1.46.18-3.01.26-4.33-.38-2.4-1.15-3.74-12.53-4.53-15.67-1.66-6.65-3.17-13.33-4.53-20.05-3.42-16.99-6.05-34.34-6.13-51.7-.06-13.43.82-30.35,10.57-40.75Z"></path><path class="cls-14" d="M133.9,358.13s57.54,8.09,73.72,13.17c16.18,5.08,23.24,11.79,23.24,11.79,0,0-12.15,19.87-13.99,23.11s-17.1,4.62-17.1,4.62c0,0-13.87-4.85-29.12-4.39s-72.1,1.59-80.19-9.01c-8.09-10.6-6.93-14.1-6.93-14.1l50.38-25.19Z"></path><path class="cls-5" d="M133.9,358.13s57.54,8.09,73.72,13.17c16.18,5.08,23.24,11.79,23.24,11.79,0,0-12.15,19.87-13.99,23.11s-17.1,4.62-17.1,4.62c0,0-13.87-4.85-29.12-4.39s-72.1,1.59-80.19-9.01c-8.09-10.6-6.93-14.1-6.93-14.1l50.38-25.19Z"></path><path class="cls-3" d="M155.54,296.75s-32.7-39.07-42.12-41.49-33.59-.79-34.63,1.3-13.64,13.97-11.09,36.48,15.42,91.03,26.14,97.37c7.03,4.16,44.06,21.05,69.52,16.29,10.33-1.93,24.93,1.21,24.93,1.21l7.99,1.91c7.07,1.69,14.52.38,20.59-3.62h0s-90.94-33.29-94.51-42.3-12.8-70.87-12.8-70.87l32.89,19.8,13.09-16.09Z"></path><rect class="cls-10" x="64.49" y="395.6" width="99.43" height="18.35" rx="9.18" ry="9.18"></rect><path class="cls-10" d="M102.19,404.07h-48.75c-7.55,0-14.73-6.11-16.04-13.66l-17.55-100.76c-1.32-7.54,3.73-13.66,11.28-13.66h48.75c7.55,0,14.73,6.12,16.04,13.66l17.55,100.76c1.32,7.55-3.73,13.66-11.28,13.66Z"></path><path class="cls-8" d="M82.56,404.07h-29.12c-7.55,0-14.73-6.11-16.04-13.66l-17.55-100.76c-1.32-7.54,3.73-13.66,11.28-13.66h29.11c7.55,0,14.73,6.12,16.04,13.66l17.56,100.76c1.31,7.55-3.74,13.66-11.28,13.66Z"></path><path class="cls-12" d="M122.48,413.95v48.04c-4.37-1.2-8.67-2.55-12.92-4.06v-43.98h12.92Z"></path><path class="cls-9" d="M122.48,413.95v48.04c-4.37-1.2-8.67-2.55-12.92-4.06v-43.98h12.92Z"></path></g><g id="computer"><polygon class="cls-14" points="347.76 293.04 309.04 293.04 328.4 318.89 367.13 318.89 347.76 293.04"></polygon><polygon class="cls-7" points="347.76 293.04 309.04 293.04 328.4 318.89 367.13 318.89 347.76 293.04"></polygon><path class="cls-14" d="M415.08,197.75l-18.79,78.24-3.9,16.25c-.59,2.44-3.07,4.43-5.55,4.43h-129.3c-2.47,0-4-1.99-3.41-4.43l3.9-16.25,18.79-78.24c.58-2.45,3.06-4.43,5.54-4.43h129.3c2.48,0,4,1.98,3.42,4.43Z"></path><path class="cls-6" d="M415.08,197.75l-18.79,78.24h-138.26l18.79-78.24c.58-2.45,3.06-4.43,5.54-4.43h129.3c2.48,0,4,1.98,3.42,4.43Z"></path><path class="cls-14" d="M303.11,212.96h-5.51c-.59,0-.97-.48-.84-1.07h0c.13-.59.71-1.07,1.3-1.07h5.51c.59,0,.97.48.84,1.07h0c-.13.59-.71,1.07-1.3,1.07Z"></path><path class="cls-12" d="M334.09,212.96h-24.55c-.59,0-.97-.48-.84-1.07h0c.13-.59.71-1.07,1.3-1.07h24.55c.59,0,.97.48.84,1.07h0c-.13.59-.71,1.07-1.3,1.07Z"></path><path class="cls-12" d="M300.6,224.59h-5.51c-.59,0-.97-.48-.84-1.07h0c.13-.59.71-1.07,1.3-1.07h5.51c.59,0,.97.48.84,1.07h0c-.13.59-.71,1.07-1.3,1.07Z"></path><path class="cls-14" d="M331.58,224.59h-24.55c-.59,0-.97-.48-.84-1.07h0c.13-.59.71-1.07,1.3-1.07h24.55c.59,0,.97.48.84,1.07h0c-.13.59-.71,1.07-1.3,1.07Z"></path><path class="cls-14" d="M301.86,218.78h-5.51c-.59,0-.97-.48-.84-1.07h0c.13-.59.71-1.07,1.3-1.07h5.51c.59,0,.97.48.84,1.07h0c-.13.59-.71,1.07-1.3,1.07Z"></path><path class="cls-14" d="M346.02,212.96h-5.51c-.59,0-.97-.48-.84-1.07h0c.13-.59.71-1.07,1.3-1.07h5.51c.59,0,.97.48.84,1.07h0c-.13.59-.71,1.07-1.3,1.07Z"></path><path class="cls-14" d="M321.28,218.78h-13c-.59,0-.97-.48-.84-1.07h0c.13-.59.71-1.07,1.3-1.07h13c.59,0,.97.48.84,1.07h0c-.13.59-.71,1.07-1.3,1.07Z"></path><path class="cls-14" d="M345.52,218.78h-17.81c-.59,0-.97-.48-.84-1.07h0c.13-.59.71-1.07,1.3-1.07h17.81c.59,0,.97.48.84,1.07h0c-.13.59-.71,1.07-1.3,1.07Z"></path><path class="cls-14" d="M370.25,212.96h-17.81c-.59,0-.97-.48-.84-1.07h0c.13-.59.71-1.07,1.3-1.07h17.81c.59,0,.97.48.84,1.07h0c-.13.59-.71,1.07-1.3,1.07Z"></path><path class="cls-14" d="M315.87,234.69h-5.51c-.59,0-.97-.48-.84-1.07h0c.13-.59.71-1.07,1.3-1.07h5.51c.59,0,.97.48.84,1.07h0c-.13.59-.71,1.07-1.3,1.07Z"></path><path class="cls-12" d="M346.85,234.69h-24.55c-.59,0-.97-.48-.84-1.07h0c.13-.59.71-1.07,1.3-1.07h24.55c.59,0,.97.48.84,1.07h0c-.13.59-.71,1.07-1.3,1.07Z"></path><path class="cls-14" d="M313.36,246.31h-5.51c-.59,0-.97-.48-.84-1.07h0c.13-.59.71-1.07,1.3-1.07h5.51c.59,0,.97.48.84,1.07h0c-.13.59-.71,1.07-1.3,1.07Z"></path><path class="cls-14" d="M344.34,246.31h-24.55c-.59,0-.97-.48-.84-1.07h0c.13-.59.71-1.07,1.3-1.07h24.55c.59,0,.97.48.84,1.07h0c-.13.59-.71,1.07-1.3,1.07Z"></path><path class="cls-14" d="M375.32,246.31h-24.55c-.59,0-.97-.48-.84-1.07h0c.13-.59.71-1.07,1.3-1.07h24.55c.59,0,.97.48.84,1.07h0c-.13.59-.71,1.07-1.3,1.07Z"></path><path class="cls-14" d="M314.62,240.5h-5.51c-.59,0-.97-.48-.84-1.07h0c.13-.59.71-1.07,1.3-1.07h5.51c.59,0,.97.48.84,1.07h0c-.13.59-.71,1.07-1.3,1.07Z"></path><path class="cls-14" d="M358.78,234.69h-5.51c-.59,0-.97-.48-.84-1.07h0c.13-.59.71-1.07,1.3-1.07h5.51c.59,0,.97.48.84,1.07h0c-.13.59-.71,1.07-1.3,1.07Z"></path><path class="cls-14" d="M334.05,240.5h-13c-.59,0-.97-.48-.84-1.07h0c.13-.59.71-1.07,1.3-1.07h13c.59,0,.97.48.84,1.07h0c-.13.59-.71,1.07-1.3,1.07Z"></path><path class="cls-12" d="M358.28,240.5h-17.81c-.59,0-.97-.48-.84-1.07h0c.13-.59.71-1.07,1.3-1.07h17.81c.59,0,.97.48.84,1.07h0c-.13.59-.71,1.07-1.3,1.07Z"></path><path class="cls-14" d="M300.38,262.37h-5.51c-.59,0-.97-.48-.84-1.07h0c.13-.59.71-1.07,1.3-1.07h5.51c.59,0,.97.48.84,1.07h0c-.13.59-.71,1.07-1.3,1.07Z"></path><path class="cls-14" d="M331.36,262.37h-24.55c-.59,0-.97-.48-.84-1.07h0c.13-.59.71-1.07,1.3-1.07h24.55c.59,0,.97.48.84,1.07h0c-.13.59-.71,1.07-1.3,1.07Z"></path><path class="cls-14" d="M362.33,262.37h-24.55c-.59,0-.97-.48-.84-1.07h0c.13-.59.71-1.07,1.3-1.07h24.55c.59,0,.97.48.84,1.07h0c-.13.59-.71,1.07-1.3,1.07Z"></path><path class="cls-14" d="M301.63,256.56h-5.51c-.59,0-.97-.48-.84-1.07h0c.13-.59.71-1.07,1.3-1.07h5.51c.59,0,.97.48.84,1.07h0c-.13.59-.71,1.07-1.3,1.07Z"></path><path class="cls-12" d="M321.06,256.56h-13c-.59,0-.97-.48-.84-1.07h0c.13-.59.71-1.07,1.3-1.07h13c.59,0,.97.48.84,1.07h0c-.13.59-.71,1.07-1.3,1.07Z"></path><path class="cls-14" d="M345.29,256.56h-17.81c-.59,0-.97-.48-.84-1.07h0c.13-.59.71-1.07,1.3-1.07h17.81c.59,0,.97.48.84,1.07h0c-.13.59-.71,1.07-1.3,1.07Z"></path><path class="cls-14" d="M383.01,234.69h-17.81c-.59,0-.97-.48-.84-1.07h0c.13-.59.71-1.07,1.3-1.07h17.81c.59,0,.97.48.84,1.07h0c-.13.59-.71,1.07-1.3,1.07Z"></path></g><g id="cloud"><path class="cls-2" d="M196.23,151.49c.05-.58.09-1.17.09-1.76,0-11.24-9.11-20.35-20.35-20.35-7.79,0-14.55,4.38-17.97,10.81-1.28-.4-2.63-.62-4.04-.62-6.87,0-12.52,5.15-13.34,11.79h-1.45c-8.83,0-15.98,7.16-15.98,15.98s7.16,15.98,15.98,15.98h55.16c8.83,0,15.98-7.16,15.98-15.98,0-8.18-6.15-14.92-14.09-15.86Z"></path><path class="cls-12" d="M198.47,148.56c.05-.58.09-1.17.09-1.76,0-11.24-9.11-20.35-20.35-20.35-7.79,0-14.55,4.38-17.97,10.81-1.28-.4-2.63-.62-4.04-.62-6.87,0-12.52,5.15-13.34,11.79h-1.45c-8.83,0-15.98,7.16-15.98,15.98s7.16,15.98,15.98,15.98h55.16c8.83,0,15.98-7.16,15.98-15.98,0-8.18-6.15-14.92-14.09-15.86Z"></path><path class="cls-14" d="M165.67,165.46l-12.08-6.22v-1.41l12.08-6.22v1.8l-10.18,5.1v.05l10.18,5.1v1.8"></path><path class="cls-14" d="M167.82,167.97l7.27-18.88h1.77l-7.29,18.88h-1.75Z"></path><path class="cls-14" d="M178.05,165.46v-1.8l10.26-5.1v-.05l-10.26-5.1v-1.8l12.08,6.2v1.46l-12.08,6.2"></path></g><g id="cloud-2"><path class="cls-2" d="M321.79,129.85c.04-.47.07-.94.07-1.41,0-9.01-7.3-16.31-16.31-16.31-6.25,0-11.67,3.51-14.41,8.67-1.02-.32-2.11-.5-3.24-.5-5.51,0-10.04,4.13-10.7,9.46h-1.16c-7.08,0-12.82,5.74-12.82,12.82s5.74,12.82,12.82,12.82h44.23c7.08,0,12.82-5.74,12.82-12.82,0-6.56-4.93-11.96-11.29-12.72Z"></path><path class="cls-12" d="M323.31,127.9c.04-.47.07-.94.07-1.41,0-9.01-7.3-16.31-16.31-16.31-6.25,0-11.67,3.51-14.41,8.67-1.02-.32-2.11-.5-3.24-.5-5.51,0-10.04,4.13-10.7,9.46h-1.16c-7.08,0-12.82,5.74-12.82,12.82s5.74,12.82,12.82,12.82h44.23c7.08,0,12.82-5.74,12.82-12.82,0-6.56-4.93-11.96-11.29-12.72Z"></path><path class="cls-14" d="M286.92,134.29l9.54-4.91v1.42l-8.04,4.03v.04l8.04,4.03v1.42l-9.54-4.91v-1.11Z"></path><path class="cls-14" d="M298.15,142.3l5.74-14.9h1.4l-5.76,14.9h-1.38Z"></path><path class="cls-14" d="M315.77,135.42l-9.54,4.89v-1.42l8.1-4.03v-.04l-8.1-4.03v-1.42l9.54,4.89v1.15Z"></path></g></svg>
