<svg transform="scale(4)" id="PG61v0tQKG" xmlns="http://www.w3.org/2000/svg" xmlns:xlink="http://www.w3.org/1999/xlink" viewBox="0 0 500 500" class="pbimage_pbimage__wrapper__image__0LEis false"><title>Team Coding</title><defs><style> .cls-1{fill:#606060;} .cls-1, .cls-2, .cls-3, .cls-4, .cls-5, .cls-6, .cls-7, .cls-8, .cls-9, .cls-10, .cls-11, .cls-12, .cls-13, .cls-14, .cls-15{stroke-width:0px;} .cls-2{fill:url(#linear-gradient-PG61v0tQKG);} .cls-3{fill:#000;} .cls-4{isolation:isolate;opacity:.18;} .cls-4, .cls-6{fill:#68e1fd;} .cls-5{opacity:.55;} .cls-5, .cls-14{fill:#fff;} .cls-7{fill:#fcb8a8;} .cls-8{fill:url(#linear-gradient-4-PG61v0tQKG);} .cls-9{fill:url(#linear-gradient-2-PG61v0tQKG);} .cls-10{fill:url(#linear-gradient-3-PG61v0tQKG);} .cls-11{fill:url(#linear-gradient-7-PG61v0tQKG);} .cls-12{fill:url(#linear-gradient-5-PG61v0tQKG);} .cls-13{fill:url(#linear-gradient-6-PG61v0tQKG);} .cls-15{fill:#231f20;}
 .cls-5, .cls-14{fill:#FFFFFF;}
 .cls-4, .cls-6{fill:#68E1FD;}
 .cls-15{fill:#231F20;}
 .cls-7{fill:#FCB8A8;}
 .cls-3{fill:#000000;}
 .cls-1{fill:#606060;}</style><linearGradient id="linear-gradient-PG61v0tQKG" x1="155.15" y1="146.6" x2="186.4" y2="286.18" gradientUnits="userSpaceOnUse"><stop offset="0" stop-color="#231f20" style="stop-color: rgb(35, 31, 32);"></stop><stop offset=".2" stop-color="#231f20" stop-opacity=".69" style="stop-color: rgb(35, 31, 32);"></stop><stop offset=".23" stop-color="rgba(35,31,32,.58)" stop-opacity=".58" style="stop-color: rgba(35, 31, 32, 0.58);"></stop><stop offset=".35" stop-color="rgba(35,31,32,.25)" stop-opacity=".25" style="stop-color: rgba(35, 31, 32, 0.25);"></stop><stop offset=".52" stop-color="rgba(35,31,32,.05)" stop-opacity=".05" style="stop-color: rgba(35, 31, 32, 0.05);"></stop><stop offset="1" stop-color="#231f20" stop-opacity="0" style="stop-color: rgb(35, 31, 32);"></stop></linearGradient><linearGradient id="linear-gradient-2-PG61v0tQKG" x1="282.72" y1="140.47" x2="313.97" y2="280.05" xlink:href="#linear-gradient-PG61v0tQKG"></linearGradient><linearGradient id="linear-gradient-3-PG61v0tQKG" x1="121.39" y1="282.37" x2="121.85" y2="216.17" xlink:href="#linear-gradient-PG61v0tQKG"></linearGradient><linearGradient id="linear-gradient-4-PG61v0tQKG" x1="-133.33" y1="270.72" x2="330.21" y2="342.6" xlink:href="#linear-gradient-PG61v0tQKG"></linearGradient><linearGradient id="linear-gradient-5-PG61v0tQKG" x1="358.64" y1="300.09" x2="382.25" y2="132.5" xlink:href="#linear-gradient-PG61v0tQKG"></linearGradient><linearGradient id="linear-gradient-6-PG61v0tQKG" x1="507.74" y1="253.68" x2="346.16" y2="348.58" xlink:href="#linear-gradient-PG61v0tQKG"></linearGradient><linearGradient id="linear-gradient-7-PG61v0tQKG" x1="421.37" y1="396.5" x2="299.15" y2="162.47" xlink:href="#linear-gradient-PG61v0tQKG"></linearGradient></defs><path class="cls-4" d="M492.46,262.43c-2.71,34-9.94,76.26-33.09,98.46-9.67,9.27-20.37,17.77-31.6,25.71-8.61,6.07-17.54,11.81-26.59,17.31-47.08,28.62-99.57,52.11-156.21,59.39-56.62,7.29-117.95-3.25-161.37-36.03-10.77-8.12-20.44-17.66-26.48-28.95-4.82-9.01-7.15-18.8-9.58-28.57-2.16-8.73-4.4-17.46-8.54-25.57-3.76-7.38-8.92-13.98-14.72-20.24-13.85-14.95-18.37-30.76-18.92-51.02-1.05-38.44,6.29-71.55,34.55-97.97,28.36-26.5,64.95-41.55,97.16-62.51,24.94-16.23,48.14-36.4,76.58-45.15,28.26-8.69,58.95-5.09,87.47,2.71,32.73,8.95,63.35,21.72,96.43,27.91,28.85,5.39,58.98,22.03,73.87,47.94,17.76,30.89,23.85,67.52,21.93,103.1-.23,4.29-.52,8.81-.89,13.48Z"></path><path class="cls-1" d="M435.28,399.71l-378.41,13.98c1.01-3.28,2.02-6.57,3.05-9.85,3.14-10.08,6.36-20.13,9.67-30.16.14-.42.29-.86.42-1.28,8.15-24.8,16.81-49.44,25.93-73.91.15-.39.29-.78.44-1.17l.71-1.68,15.04-35.58,16.86-39.91,197.89-9.58,108.41,189.14Z" fill="#606060"></path><polygon class="cls-15" points="57.52 424.16 430.45 409.05 435.28 399.69 56.01 412.98 57.52 424.16" fill="#231F20"></polygon><path class="cls-15" d="M198.71,288.75c1.05-3.71,3.66-6.86,6.86-9.02,3.2-2.16,6.94-3.39,10.74-4.07,2.45-.44,5.17-.62,7.26.74,2.36,1.53,3.25,4.7,2.77,7.47-.48,2.77-2.07,5.22-3.8,7.44-3.89,4.98-8.84,9.37-14.82,11.4-1.99.68-4.2,1.07-6.17.34-2.76-1.02-4.36-4.09-4.45-7.04-.09-2.94,1.19-5.73,1.62-7.26Z" fill="#231F20"></path><polygon class="cls-15" points="138.49 255.6 186.31 283.33 209.93 261.12 164.34 238.1 138.49 255.6" fill="#231F20"></polygon><path class="cls-3" d="M226.48,278.68l-2.35-.7c1.26-4.21,2.83-9.45,6.77-12.82,2.23-1.9,4.93-2.96,7.55-3.99l.82-.32c4.71-1.87,8.37-3.74,11.52-5.87,3.45-2.34,5.85-4.77,7.32-7.44,1.76-3.19,2.1-6.79.93-9.64-.58-1.39-1.5-2.63-2.47-3.94-.91-1.22-1.85-2.49-2.53-3.93-2.36-4.98-.96-11.4,3.27-14.94l1.57,1.88c-3.34,2.8-4.5,8.07-2.63,12.01.58,1.23,1.41,2.34,2.29,3.52,1.02,1.38,2.08,2.8,2.77,4.47,1.46,3.53,1.07,7.93-1.05,11.76-1.66,3.01-4.31,5.72-8.09,8.28-3.3,2.23-7.11,4.18-11.99,6.12l-.83.33c-2.43.95-4.93,1.94-6.85,3.57-3.4,2.9-4.85,7.76-6.02,11.66Z" fill="#000000"></path><ellipse class="cls-6" cx="164.54" cy="219.49" rx="26.39" ry="6.79"></ellipse><rect class="cls-6" x="151.5" y="164.5" width="28.22" height="57.65"></rect><rect class="cls-2" x="151.5" y="164.5" width="28.22" height="57.65"></rect><polygon class="cls-6" points="122.68 53.74 124.67 184.83 199.15 180.26 200.74 71.02 122.68 53.74"></polygon><polygon class="cls-5" points="126.27 59.76 128.07 178.81 195.71 174.66 197.16 75.45 126.27 59.76"></polygon><ellipse class="cls-6" cx="292.11" cy="213.35" rx="26.39" ry="6.79"></ellipse><rect class="cls-6" x="279.08" y="158.37" width="28.22" height="57.65"></rect><rect class="cls-9" x="279.08" y="158.37" width="28.22" height="57.65"></rect><polygon class="cls-6" points="217.62 72.8 219.21 168.94 366.64 162.29 368.89 50.38 217.62 72.8"></polygon><polygon class="cls-5" points="224.28 76.05 225.73 163.72 360.19 157.67 362.24 55.59 224.28 76.05"></polygon><path class="cls-7" d="M127.25,251.81c3.76-2.97,5.75-7.68,9.26-10.94,5.29-4.91,13.24-5.78,20.38-4.72.85.13,1.73.29,2.44.79s1.18,1.43.88,2.24c-.47,1.3-2.25,1.34-3.63,1.28-2.99-.12-6.01.46-8.94,2.05.97,1.67,3.21,1.98,5.13,2.18s4.18.72,4.9,2.51c.06.15.11.31.07.46-.05.22-.26.36-.45.48-3.02,1.78-6.83,1.34-10.22.47-.71-.18-1.46-.38-2.16-.15-.47.16-.85.49-1.21.82-2.2,1.99-4.35,4.21-7.14,5.21-2.8.99-6.5.24-9.31-2.68Z" fill="#FCB8A8"></path><path class="cls-6" d="M107.04,254.9c6.87-3.1,13.95-5.72,21.17-7.85.42-.12.88-.24,1.28-.09.39.15.64.52.87.88,1.96,3.04,3.78,6.17,5.48,9.37.15.29.31.61.23.92-.08.31-.37.52-.64.7-5.67,3.73-11.33,7.46-17,11.19-.26.17-.55.35-.86.32-.44-.05-.72-.48-.93-.87-2.98-5.49-5.72-11.1-9.6-14.57Z"></path><path class="cls-10" d="M107.04,254.9c6.87-3.1,13.95-5.72,21.17-7.85.42-.12.88-.24,1.28-.09.39.15.64.52.87.88,1.96,3.04,3.78,6.17,5.48,9.37.15.29.31.61.23.92-.08.31-.37.52-.64.7-5.67,3.73-11.33,7.46-17,11.19-.26.17-.55.35-.86.32-.44-.05-.72-.48-.93-.87-2.98-5.49-5.72-11.1-9.6-14.57Z"></path><path class="cls-7" d="M99.55,176.34c1.77,3.2,1.47,7.08,1.72,10.73.25,3.65,1.51,7.76,4.87,9.21.43.18.88.32,1.26.59,1,.72,1.14,2.21.72,3.37s-1.28,2.1-2,3.1c-1.74,2.4-2.8,5.3-3.02,8.26-.21,2.8.29,5.77-.93,8.3-.63,1.31-1.69,2.39-2.87,3.25-4.25,3.1-10.19,3.48-15.03,1.41-4.84-2.07-8.56-6.36-10.45-11.27-1.23-3.19-1.87-6.85-4.42-9.12-1.46-1.29-3.4-1.98-4.75-3.38-1.75-1.81-2.23-4.58-1.75-7.05s1.77-4.71,3.2-6.78c2.99-4.35,6.68-8.3,11.24-10.96s10.03-3.95,15.2-2.91c2.96.6,6.33,2.03,7.01,3.25Z" fill="#FCB8A8"></path><path class="cls-7" d="M86.98,215.36c-2.5,5.02-2.47,11.23.07,16.23.29.57.62,1.21.44,1.82-.23.78-1.15,1.1-1.95,1.27-7.67,1.64-15.95.23-22.65-3.85,3-5.85,2.83-12.75,2.56-19.31-.03-.81-.06-1.65.27-2.38.39-.87,1.21-1.45,1.99-1.99,3.29-2.28,7.18-4.67,11.04-3.59,1.7.48,3.16,1.6,4.41,2.86,2.8,2.81,4.76,7.08,3.84,8.95Z" fill="#FCB8A8"></path><path class="cls-7" d="M156.24,277.31c3.54-4.15,7.04-8.46,10.73-12.49,1.79-1.96,3.54-3.81,5.86-5.15,2.35-1.36,4.97-2.26,7.66-2.63.35-.05.76-.06.98.21.19.23.14.59-.02.84s-.43.41-.69.57c-1.96,1.21-3.93,2.42-5.89,3.63-.82.5-1.69,1.07-2.03,1.97,1.5-.43,2.99-.87,4.45-1.42,1.48-.55,2.95-1.23,4.52-1.36,1.13-.09,2.26.11,3.38.3.36.06.77.16.93.49.24.49-.27,1.01-.76,1.25-.95.47-2.03.61-3.06.86-1.38.34-2.71.9-3.92,1.66-.75.46-1.52,1.14-1.51,2.02,3.26-1.17,6.71-2.36,10.11-1.68.15.03.3.07.39.19.22.3-.17.67-.52.81-1.45.59-3.04.73-4.58,1.02s-3.12.76-4.24,1.87c-.26.26-.49.69-.24.96.11.11.28.15.44.16.7.05,1.38-.18,2.06-.37,1.88-.51,3.86-.62,5.79-.34.13.49-.34.93-.79,1.18-1.27.71-2.71,1-4.02,1.61-1.18.55-1.55,1.35-2.29,2.39-1.45,2.04-3.21,4.02-5.65,4.85-1.73.59-3.61.52-5.43.72-2.68.29-5.29,1.18-7.6,2.57-1.36-2.23-2.7-4.5-4.09-6.69Z" fill="#FCB8A8"></path><path class="cls-15" d="M82.76,154.53c-3.44-2.78-8.52-1.74-12.63-.11-6.26,2.48-12.2,6.09-16.48,11.28-4.28,5.19-6.77,12.08-5.74,18.73.98,6.36,5,12.69,2.9,18.77-.44,1.29-1.16,2.62-.8,3.94.19.67.65,1.24,1.17,1.7,1.84,1.62,4.65,2.04,6.89,1.02.23,1.86-.01,3.78-.68,5.54,1.32,1.33,3.45,1.79,5.2,1.11-.4,1.3.1,2.83,1.19,3.65,6.17-1.93,11.26-7,13.21-13.16-.7.99-2.24,1.05-3.3.45-1.06-.6-1.74-1.68-2.36-2.73-2.28-3.83-4.25-8.84-1.7-12.5,1.27-1.82,3.59-2.86,5.8-2.61,2.21.26,4.22,1.8,5.56,2.68.42,1.25,2.03,1.76,3.29,1.4,1.27-.36,2.25-1.33,3.13-2.31,2.34-2.6,4.35-5.48,6-8.57.19,2.75-.22,5.53-1.19,8.11,5.14-3.78,9.43-8.97,11.15-15.11,1.72-6.14.57-13.25-3.79-17.9-4.36-4.65-12.06-6.15-16.82-3.38Z" fill="#231F20"></path><path class="cls-6" d="M164.47,287.25c-.21.75-.87,1.24-1.49,1.69-10.68,7.7-21.35,15.4-32.03,23.11-2.96,2.15-6.47,4.4-10.03,3.51-1.41-.36-2.64-1.18-3.83-2.02-6.69-4.7-12.89-10.13-18.44-16.16-.52-.57-1.05-1.14-1.57-1.73-.54-.6-1.06-1.21-1.58-1.82.17,1.56.32,3.11.44,4.67-9.28,24.88-18.08,49.96-26.35,75.19-4.38.24-8.81-.14-13.1-1.08-3.07-.68-6.06-1.64-8.95-2.86-2.16-8.73-4.4-17.46-8.54-25.57-3.76-7.38-8.92-13.98-14.72-20.24.97-14.05,2.8-28.03,5.49-41.86-2.23-10.23-1.84-22,.72-33.27.88-3.87,2.08-7.76,3.82-11.33,1.46-3.04,3.32-5.85,5.72-8.21,1.33-1.32,2.87-2.48,4.53-3.38h.01c4.84-2.72,10.73-3.52,15.76-1.03,5.33,4.84,12.89,5.97,19.87,7.7,6.51,1.6,12.99,3.98,18.14,8.27,5.44,4.52,9.03,10.82,12.5,17,.42.75.85,1.51,1.27,2.25,4.24,7.55,8.49,15.08,12.74,22.63,12.39-1.99,23.2-6.12,33.26-11.66,1.98,4.65,3.96,9.32,5.95,13.97.3.71.61,1.49.4,2.24Z"></path><path class="cls-8" d="M164.47,287.25c-.21.75-.87,1.24-1.49,1.69-10.68,7.7-21.35,15.4-32.03,23.11-2.96,2.15-6.47,4.4-10.03,3.51-1.41-.36-2.64-1.18-3.83-2.02-6.69-4.7-12.89-10.13-18.44-16.16-4.94-6.15-9.05-11.32-11.11-14.05-7.95-10.5-12.32,3.51-12.32,3.51l-18.74,85.76c-3.07-.68-6.06-1.64-8.95-2.86-2.16-8.73-4.4-17.46-8.54-25.57-3.76-7.38-8.92-13.98-14.72-20.24.97-14.05,2.8-28.03,5.49-41.86-2.23-10.23-1.84-22,.72-33.27.88-3.87,2.08-7.76,3.82-11.33,5.97-6.88,10.02-11.32,10.25-11.6h.01s31.79,12.59,37.35,17.27c5.55,4.68,36.11,57.36,40.76,57.38,4.64.02,37.64-16.52,37.64-16.52l4.14,3.25Z"></path><path class="cls-15" d="M70.01,372.4c-.14.42-.29.86-.42,1.28-3.31,10.03-6.53,20.08-9.67,30.16-6.78-9.97-12.38-34.1-12.38-34.1,7.8,2.87,15.74,3.25,22.47,2.66Z" fill="#231F20"></path><polygon class="cls-6" points="267.18 95.21 241.91 96.97 241.91 94.59 267.18 92.83 267.18 95.21"></polygon><polygon class="cls-14" points="301.24 92.84 275.97 94.6 275.97 92.21 301.24 90.45 301.24 92.84"></polygon><polygon class="cls-14" points="335.3 90.47 310.04 92.23 310.04 89.84 335.3 88.08 335.3 90.47"></polygon><polygon class="cls-14" points="276.88 102.23 251.61 103.99 251.61 101.61 276.88 99.85 276.88 102.23"></polygon><polygon class="cls-14" points="310.94 99.86 285.67 101.62 285.67 99.24 310.94 97.48 310.94 99.86"></polygon><polygon class="cls-14" points="345 97.49 319.74 99.25 319.74 96.86 345 95.11 345 97.49"></polygon><polygon class="cls-14" points="333.65 104.36 308.38 106.11 308.38 103.73 333.65 101.97 333.65 104.36"></polygon><polygon class="cls-14" points="265.65 109.09 251.61 110.07 251.61 107.68 265.65 106.71 265.65 109.09"></polygon><polygon class="cls-14" points="284.57 107.77 270.53 108.75 270.53 106.37 284.57 105.39 284.57 107.77"></polygon><polygon class="cls-14" points="303.49 106.46 289.46 107.43 289.46 105.05 303.49 104.07 303.49 106.46"></polygon><polygon class="cls-14" points="267.18 117.24 241.91 119 241.91 116.61 267.18 114.86 267.18 117.24"></polygon><polygon class="cls-6" points="301.24 114.87 275.97 116.63 275.97 114.24 301.24 112.48 301.24 114.87"></polygon><polygon class="cls-14" points="335.3 112.5 310.04 114.26 310.04 111.87 335.3 110.11 335.3 112.5"></polygon><polygon class="cls-14" points="276.88 124.26 251.61 126.02 251.61 123.64 276.88 121.88 276.88 124.26"></polygon><polygon class="cls-14" points="310.94 121.89 285.67 123.65 285.67 121.27 310.94 119.51 310.94 121.89"></polygon><polygon class="cls-14" points="345 119.52 319.74 121.28 319.74 118.89 345 117.13 345 119.52"></polygon><polygon class="cls-6" points="333.65 126.38 308.38 128.14 308.38 125.76 333.65 124 333.65 126.38"></polygon><polygon class="cls-14" points="265.65 131.12 251.61 132.1 251.61 129.71 265.65 128.74 265.65 131.12"></polygon><polygon class="cls-14" points="284.57 129.8 270.53 130.78 270.53 128.39 284.57 127.42 284.57 129.8"></polygon><polygon class="cls-14" points="303.49 128.48 289.46 129.46 289.46 127.08 303.49 126.1 303.49 128.48"></polygon><polygon class="cls-6" points="149.88 90.95 138.48 90.11 138.48 87.73 149.88 88.56 149.88 90.95"></polygon><polygon class="cls-14" points="165.25 92.08 153.85 91.24 153.85 88.86 165.25 89.69 165.25 92.08"></polygon><polygon class="cls-14" points="180.63 93.21 169.22 92.37 169.22 89.98 180.63 90.82 180.63 93.21"></polygon><polygon class="cls-14" points="154.26 98.97 142.86 98.13 142.86 95.75 154.26 96.58 154.26 98.97"></polygon><polygon class="cls-14" points="169.63 100.1 158.23 99.26 158.23 96.88 169.63 97.71 169.63 100.1"></polygon><polygon class="cls-14" points="185 101.23 173.6 100.39 173.6 98 185 98.84 185 101.23"></polygon><polygon class="cls-14" points="179.88 106.92 168.48 106.09 168.48 103.7 179.88 104.54 179.88 106.92"></polygon><polygon class="cls-14" points="149.19 104.67 142.86 104.21 142.86 101.82 149.19 102.29 149.19 104.67"></polygon><polygon class="cls-14" points="157.73 105.3 151.4 104.83 151.4 102.45 157.73 102.91 157.73 105.3"></polygon><polygon class="cls-14" points="166.27 105.93 159.94 105.46 159.94 103.08 166.27 103.54 166.27 105.93"></polygon><polygon class="cls-14" points="149.88 112.98 138.48 112.14 138.48 109.76 149.88 110.59 149.88 112.98"></polygon><polygon class="cls-6" points="165.25 114.11 153.85 113.27 153.85 110.89 165.25 111.72 165.25 114.11"></polygon><polygon class="cls-14" points="180.63 115.23 169.22 114.4 169.22 112.01 180.63 112.85 180.63 115.23"></polygon><polygon class="cls-14" points="154.26 121 142.86 120.16 142.86 117.78 154.26 118.61 154.26 121"></polygon><polygon class="cls-14" points="169.63 122.13 158.23 121.29 158.23 118.91 169.63 119.74 169.63 122.13"></polygon><polygon class="cls-14" points="185 123.25 173.6 122.42 173.6 120.03 185 120.87 185 123.25"></polygon><polygon class="cls-6" points="179.88 128.95 168.48 128.12 168.48 125.73 179.88 126.57 179.88 128.95"></polygon><polygon class="cls-14" points="149.19 126.7 142.86 126.24 142.86 123.85 149.19 124.32 149.19 126.7"></polygon><polygon class="cls-14" points="157.73 127.33 151.4 126.86 151.4 124.48 157.73 124.94 157.73 127.33"></polygon><polygon class="cls-14" points="166.27 127.95 159.94 127.49 159.94 125.1 166.27 125.57 166.27 127.95"></polygon><polygon class="cls-14" points="265.5 158.37 233.15 160.03 233.15 139.19 265.5 137.52 265.5 158.37"></polygon><polygon class="cls-6" points="244.61 144.22 239.47 148.78 245.25 153.34 245.55 151.82 241.82 148.78 245.55 145.52 244.61 144.22"></polygon><polygon class="cls-6" points="254.03 143.86 259.18 148.42 253.39 152.98 253.09 151.46 256.82 148.42 253.09 145.16 254.03 143.86"></polygon><rect class="cls-6" x="248.41" y="142.8" width="1.59" height="11.95" transform="translate(73.02 -81.87) rotate(21.79)"></rect><path class="cls-14" d="M293.84,321.46c-6.47-5.41-13.34-10.33-20.54-14.72-.83-.5-1.7-1.01-2.67-1.04-1.28-.03-2.41.79-3.42,1.57-14.06,10.89-27.81,22.19-42.67,34.47,26.22,13.76,51.03,30.21,73.91,49.01,15.08-11.23,30.15-22.46,45.23-33.69-10.4-4.24-20.18-9.99-28.94-17.02"></path><path class="cls-15" d="M461.11,337.07l-1.74,23.83c-9.67,9.27-20.37,17.77-31.6,25.71l-11.42-19.82,44.77-29.71Z" fill="#231F20"></path><path class="cls-7" d="M417.67,219.74c-4.56,2.19-9.64,3.3-14.7,3.21-1.58-.03-3.23-.2-4.52-1.1-1.7-1.19-2.37-3.37-2.84-5.39-1.03-4.41-1.8-9.16-4.83-12.53-.95-1.05-2.15-2.57-1.24-3.65.45-.54,1.23-.63,1.9-.82,3.07-.89,4.56-4.36,5.08-7.51.52-3.15.54-6.55,1.65-9.06,4.35-5.2,11.84-8.76,17.95-5.84,3.82,1.83,6.21,5.74,7.73,9.69,2.23,5.79,3.05,12.18,1.86,18.26-1.19,6.09-3.88,12.75-8.04,14.74Z" fill="#FCB8A8"></path><path class="cls-7" d="M318.67,325.21c-7.06-2.26-14.12-4.52-21.17-6.78-1.59-.51-3.52-.96-4.78.13-1.46,1.26-.93,3.71.28,5.21,1.21,1.5,2.94,2.55,3.98,4.18-7.8,5.48-18.31,4.34-27.7,2.7-.45,2.79,1.59,5.51,4.12,6.77,2.53,1.27,5.45,1.41,8.28,1.53-.96-.62-2.22.68-1.99,1.8s1.3,1.84,2.31,2.37c4.32,2.25,9.39,3.03,14.19,2.19.69,1.29,2.33,1.83,3.78,1.65,1.45-.18,2.76-.93,4.03-1.66,3.97-2.3,7.94-4.59,11.91-6.89,1.23-.71,2.51-1.47,3.29-2.65,1.91-2.89.1-6.71-.52-10.55Z" fill="#FCB8A8"></path><path class="cls-6" d="M409.85,237.21c-6.91-1.8-14.12-2.26-20.98-4.22-15.61-4.47-27.99-16.26-38.5-28.63-1.53-1.8-3.16-3.71-5.43-4.38-4.27-1.27-8.34,2.34-11.1,5.84-1.54,1.96-2.99,3.98-4.36,6.07-.59.91-1.19,1.89-1.16,2.98.03,1.12.72,2.1,1.39,3,4.44,6.02,8.88,12.03,13.33,18.05,5.01,6.79,10.14,13.69,16.97,18.64,9.09,6.59,20.43,9.18,31.48,11.2,7.42-8.43,13.61-17.94,18.36-28.54Z"></path><path class="cls-12" d="M409.85,237.21c-6.91-1.8-14.12-2.26-20.98-4.22-15.61-4.47-27.99-16.26-38.5-28.63-1.53-1.8-3.16-3.71-5.43-4.38-4.27-1.27-8.34,2.34-11.1,5.84-1.54,1.96-2.99,3.98-4.36,6.07-.59.91-1.19,1.89-1.16,2.98.03,1.12.72,2.1,1.39,3,4.44,6.02,8.88,12.03,13.33,18.05,5.01,6.79,10.14,13.69,16.97,18.64,9.09,6.59,20.43,9.18,31.48,11.2,7.42-8.43,13.61-17.94,18.36-28.54Z"></path><path class="cls-6" d="M461.45,332.74c.02,10.56-6.02,20.57-14.46,26.91-6.64,5-14.59,7.94-22.57,9.26-2.16.36-4.32.61-6.46.73-4.5-7.93-9.02-15.85-13.52-23.76-1.08-1.89-2.16-3.79-2.82-5.86-.62-1.92-.86-3.94-1.07-5.95-.8-7.6-1.24-15.25-.97-24.14h0s-.01-.02-.01-.02c.01,0,.01-.01.01-.01.02-1.33.09-2.7.16-4.09-3.11-1.72-6.71-2.58-10.26-2.44-3.16.11-6.42.97-9.43,0-.17-.05-.34-.11-.5-.17-3.01-1.19-5.16-3.84-8.31-3.38,2.65-6.84,5.3-13.7,7.95-20.54.67-1.73,1.33-3.46,2-5.19,3.78-9.77,7.63-19.65,13.75-28.13,6.13-8.49,14.91-15.57,24.59-16.15,3.06-.29,6.12-.39,9.18-.31,8.42.2,16.8,1.74,24.72,4.57,1.94.68,3.94,1.52,5.25,3.11,1.21,1.49,1.65,3.46,1.93,5.35.96,6.72.25,13.54-.46,20.28-.82,7.8-1.65,15.6-2.48,23.4-.86,8.07-1.7,16.27-.44,24.3,1.18,7.48,4.21,14.68,4.22,22.25Z"></path><path class="cls-13" d="M461.45,332.74c.02,10.56-6.02,20.57-14.46,26.91-6.64,5-14.59,7.94-22.57,9.26l-1.29-.47-5.2-87.16-18.35,28.64h-.01s.01-.02.01-.02c7.03-11.63,12.67-24.11,16.73-37.08,3.38-1.63,6.33-9.87,4.34-17.62-1.01-3.91-3.68-7.47-7.04-9.69l1.89-3.21,13.2-12.82c8.42.2,16.8,1.74,24.72,4.57,1.94.68,3.94,1.52,5.25,3.11,1.21,1.49,1.65,3.46,1.93,5.35.96,6.72.25,13.54-.46,20.28-.82,7.8-1.65,15.6-2.48,23.4-.86,8.07-1.7,16.27-.44,24.3,1.18,7.48,4.21,14.68,4.22,22.25Z"></path><path class="cls-6" d="M416.31,272.82c-4.07,12.96-9.7,25.44-16.73,37.08,0,0,0,.01-.01.01-4.65,7.76-9.95,15.15-15.81,22.07-1.22,1.44-2.49,2.89-4.09,3.88-2.18,1.34-4.78,1.74-7.3,2.09-17.13,2.33-34.5,2.97-51.76,1.92-.95-.05-1.95-.14-2.7-.73-.81-.65-1.08-1.74-1.31-2.75-.88-4.19-1.39-8.46-1.52-12.74-.05-1.47-.04-3.01.66-4.3.77-1.44,2.25-2.35,3.72-3.1,10.69-5.44,23.15-5.62,35.04-7.27,2.02-.27,4.07-.61,5.86-1.56,2.89-1.52,4.75-4.39,6.47-7.17,4.27-6.91,8.4-13.91,12.37-20.99,4.06-7.25,7.96-14.61,11.68-22.03,2.75-5.47,5.96-11.5,11.75-13.49,3.75-1.29,7.71-.4,11,1.77,3.36,2.23,6.03,5.79,7.04,9.69,1.99,7.75-.96,15.99-4.34,17.62Z"></path><path class="cls-11" d="M416.31,272.82c-4.07,12.96-9.7,25.44-16.73,37.08,0,0,0,.01-.01.01-4.65,7.76-9.95,15.15-15.81,22.07-1.22,1.44-2.49,2.89-4.09,3.88-2.18,1.34-4.78,1.74-7.3,2.09-17.13,2.33-34.5,2.97-51.76,1.92-.95-.05-1.95-.14-2.7-.73l-1.48-12.02,52.68-6.25,10.45-17.68,34.07-57.68c3.36,2.23,6.03,5.79,7.04,9.69,1.99,7.75-.96,15.99-4.34,17.62Z"></path><path class="cls-7" d="M339.64,204.95c-2.3-7.3-4.91-15.05-10.94-19.77-2.45-1.92-5.41-3.28-7.28-5.77-2.23-2.97-2.95-7.5-6.44-8.75-.64-.23-1.37-.31-1.97,0-1.52.8-.94,3.08-.16,4.61,1.74,3.39,3.47,6.78,5.21,10.17.22.42.44.88.39,1.35-.06.59-.53,1.05-.95,1.47-1.21,1.2-2.31,2.58-2.76,4.22s-.09,3.59,1.23,4.67c-2.32,1.68-2.49,5.3-.99,7.74,1.5,2.44,4.21,3.87,6.93,4.78s5.57,1.43,8.17,2.62c.47.22.96.46,1.48.45.4,0,.77-.17,1.13-.33,1.82-.79,3.68-1.6,5.17-2.92s2.24-3.13,1.79-4.56Z" fill="#FCB8A8"></path><path class="cls-15" d="M396.23,164.6c-3.64,3.09-4.62,8.64-2.97,13.11,1.65,4.48,5.56,7.88,9.95,9.73,4.4,1.86,9.26,2.31,14.04,2.24-1.41,1.83-.59,4.52.67,6.46s2.94,3.77,3.22,6.06c.6,4.93-5.5,9.63-3.22,14.04.31.6.76,1.13.94,1.77.38,1.37-.53,2.72-1.3,3.9-3.9,5.99-5.28,13.99-2.06,20.37,3.22,6.38,11.68,10.08,18.03,6.81-1.67,4.01-.39,8.92,2.69,11.99,3.08,3.06,7.69,4.34,12,3.83,4.62-.55,9.08-3.18,11.31-7.27,2.23-4.09,1.9-9.58-1.21-13.05,1.53,2.13,4.48,2.93,7.04,2.35,2.56-.59,4.72-2.35,6.29-4.45,1.85-2.46,3.02-5.5,2.93-8.58-.19-6.24-5.3-11.19-10.59-14.52-1.3-.82-2.72-1.68-3.34-3.09-1-2.31.56-4.87.79-7.37.27-2.97-1.38-5.78-3.33-8.04s-4.27-4.23-5.81-6.78c-2.97-4.94-2.53-11.11-2.37-16.87.16-5.76-.34-12.17-4.5-16.16-2.11-2.02-4.91-3.14-7.68-4.07-7.63-2.58-15.79-4.13-23.75-2.87s-13.78,7.06-17.78,10.44Z" fill="#231F20"></path></svg>