<svg transform="scale(4)" id="fZo6e9qRuF" data-name="0633_Asynchronous Work_2" xmlns="http://www.w3.org/2000/svg" xmlns:xlink="http://www.w3.org/1999/xlink" viewBox="0 0 500 500" class="pbimage_pbimage__wrapper__image__0LEis false"><title>Asynchronous Work 2</title><defs><style> .cls-1{fill:url(#linear-gradient-fZo6e9qRuF);} .cls-1, .cls-2, .cls-3, .cls-4, .cls-5, .cls-6, .cls-7, .cls-8, .cls-9, .cls-10, .cls-11, .cls-12, .cls-13, .cls-14, .cls-15, .cls-16, .cls-17, .cls-18{stroke-width:0px;} .cls-2{isolation:isolate;opacity:.18;} .cls-2, .cls-18{fill:#68e0fc;} .cls-3{fill:url(#linear-gradient-11-fZo6e9qRuF);} .cls-4{fill:url(#linear-gradient-12-fZo6e9qRuF);} .cls-5{fill:url(#linear-gradient-13-fZo6e9qRuF);} .cls-6{fill:url(#linear-gradient-10-fZo6e9qRuF);} .cls-7{fill:url(#linear-gradient-15-fZo6e9qRuF);} .cls-8{fill:url(#linear-gradient-14-fZo6e9qRuF);} .cls-9{fill:url(#linear-gradient-4-fZo6e9qRuF);} .cls-10{fill:url(#linear-gradient-2-fZo6e9qRuF);} .cls-11{fill:url(#linear-gradient-3-fZo6e9qRuF);} .cls-12{fill:url(#linear-gradient-8-fZo6e9qRuF);} .cls-13{fill:url(#linear-gradient-9-fZo6e9qRuF);} .cls-14{fill:url(#linear-gradient-7-fZo6e9qRuF);} .cls-15{fill:url(#linear-gradient-5-fZo6e9qRuF);} .cls-16{fill:url(#linear-gradient-6-fZo6e9qRuF);} .cls-17{fill:#f4bdad;}
 .cls-2, .cls-18{fill:#68E0FC;}
 .cls-17{fill:#F4BDAD;}</style><linearGradient id="linear-gradient-fZo6e9qRuF" x1="261.64" y1="102.3" x2="430.49" y2="84.61" gradientUnits="userSpaceOnUse"><stop offset="0" stop-color="#000" style="stop-color: rgb(0, 0, 0);"></stop><stop offset=".15" stop-color="#000" stop-opacity=".69" style="stop-color: rgb(0, 0, 0);"></stop><stop offset=".27" stop-color="#000" stop-opacity=".32" style="stop-color: rgb(0, 0, 0);"></stop><stop offset="1" stop-color="#000" stop-opacity="0" style="stop-color: rgb(0, 0, 0);"></stop></linearGradient><linearGradient id="linear-gradient-2-fZo6e9qRuF" x1="278.24" y1="248.84" x2="532.19" y2="127.16" xlink:href="#linear-gradient-fZo6e9qRuF"></linearGradient><linearGradient id="linear-gradient-3-fZo6e9qRuF" x1="209.12" y1="225.17" x2="539.54" y2="190.56" xlink:href="#linear-gradient-fZo6e9qRuF"></linearGradient><linearGradient id="linear-gradient-4-fZo6e9qRuF" x1="334.59" y1="107.8" x2="329.57" y2="59.61" xlink:href="#linear-gradient-fZo6e9qRuF"></linearGradient><linearGradient id="linear-gradient-5-fZo6e9qRuF" x1="-92.32" y1="-20.97" x2="76.53" y2="-38.66" gradientTransform="translate(152.27 386.7) rotate(-180)" xlink:href="#linear-gradient-fZo6e9qRuF"></linearGradient><linearGradient id="linear-gradient-6-fZo6e9qRuF" x1="222.44" y1="453.9" x2="113.59" y2="325.74" xlink:href="#linear-gradient-fZo6e9qRuF"></linearGradient><linearGradient id="linear-gradient-7-fZo6e9qRuF" x1="219.66" y1="450.04" x2="121.08" y2="333.98" gradientUnits="userSpaceOnUse"><stop offset="0" stop-color="#fff" style="stop-color: rgb(255, 255, 255);"></stop><stop offset="1" stop-color="#fff" stop-opacity="0" style="stop-color: rgb(255, 255, 255);"></stop></linearGradient><linearGradient id="linear-gradient-8-fZo6e9qRuF" x1="-75.09" y1="131.62" x2="178.86" y2="9.95" gradientTransform="translate(152.27 386.7) rotate(-180)" xlink:href="#linear-gradient-fZo6e9qRuF"></linearGradient><linearGradient id="linear-gradient-9-fZo6e9qRuF" x1="-144.21" y1="107.95" x2="186.21" y2="73.34" gradientTransform="translate(152.27 386.7) rotate(-180)" xlink:href="#linear-gradient-fZo6e9qRuF"></linearGradient><linearGradient id="linear-gradient-10-fZo6e9qRuF" x1="122.82" y1="133.03" x2="160.96" y2="149.96" xlink:href="#linear-gradient-fZo6e9qRuF"></linearGradient><linearGradient id="linear-gradient-11-fZo6e9qRuF" x1="143.98" y1="106.37" x2="175.24" y2="133.35" xlink:href="#linear-gradient-fZo6e9qRuF"></linearGradient><linearGradient id="linear-gradient-12-fZo6e9qRuF" x1="456.81" y1="215.88" x2="494.95" y2="232.81" gradientTransform="translate(902.42 366.23) rotate(162.17)" xlink:href="#linear-gradient-fZo6e9qRuF"></linearGradient><linearGradient id="linear-gradient-13-fZo6e9qRuF" x1="477.97" y1="189.21" x2="509.23" y2="216.19" gradientTransform="translate(902.42 366.23) rotate(162.17)" xlink:href="#linear-gradient-fZo6e9qRuF"></linearGradient><linearGradient id="linear-gradient-14-fZo6e9qRuF" x1="257.04" y1="32.05" x2="278.25" y2="207.3" xlink:href="#linear-gradient-7-fZo6e9qRuF"></linearGradient><linearGradient id="linear-gradient-15-fZo6e9qRuF" x1="141.79" y1="62.73" x2="467.55" y2="626.47" xlink:href="#linear-gradient-fZo6e9qRuF"></linearGradient></defs><g id="background"><path class="cls-2" d="M469.34,253.76c-.44,1.12-.91,2.24-1.39,3.34-8.09,18.5-21.72,33.93-32.98,50.71-.3.44-.6.89-.9,1.33-.84,1.26-1.65,2.55-2.43,3.84-9.26,15.13-15.43,31.72-22.83,47.59-1.93,4.14-3.95,8.23-6.13,12.23-5.02,9.23-10.9,17.99-18.57,25.78-10.24,10.39-22.58,18.63-36.23,25.03-.37.18-.75.36-1.12.53-4.34,2-8.8,3.81-13.37,5.44-7.02,2.53-14.27,4.64-21.68,6.38-8.49,2.02-17.18,3.54-25.93,4.63-8.2,1.03-16.45,1.69-24.64,2.01-5.28.22-10.53.29-15.72.24-7.68-.07-15.24-.42-22.57-.99-4.38-.34-8.67-.77-12.87-1.26-3.86-.46-7.65-.98-11.34-1.55-.89-.14-1.78-.28-2.67-.44-54.12-9.06-105.8-35.8-141.19-77.71-1.22-1.44-2.42-2.91-3.6-4.4-6.78-8.55-12.86-17.78-17.88-27.49-1.1-2.14-2.15-4.29-3.15-6.47-.99-2.14-1.9-4.3-2.76-6.48-1.3-3.29-2.47-6.64-3.49-10.01-3.49-11.5-5.3-23.42-4.87-35.49,1.02-28.37,14.8-56.06,36.86-73.93,10.96-8.88,23.66-15.33,36.45-21.29,33.42-15.58,68.36-28.41,101.28-44.8,12.74-6.35,25.18-13.24,37.12-21.04,1.92-1.23,3.83-2.52,5.73-3.82,22.82-15.66,39.42-36.28,68.05-41.59,29.79-5.51,61.26.52,87.86,15.03,26.6,14.51,48.36,37.2,63.47,63.46,19.25,33.48,27.56,75.41,13.49,111.18Z"></path></g><g id="hand_2" data-name="hand 2"><path class="cls-17" d="M327.94,111.81c2.95,1.89,5.14,4.78,7.53,7.35,1.14,1.23,2.21,2.55,2.98,4.05.55,1.08,1.02,2.31,2.06,2.93.76.45,1.69.49,2.58.51,4.72.1,9.6.11,14.11-1.45,2.62-.91,3.54-1.45,3.97-4.21s.15-5.35-.36-7.95c-.68-3.43-1.8-6.76-2.5-10.18-.73-3.54-1.01-7.18-1.87-10.69s-2.39-7.01-5.14-9.36c-4.1-3.52-9.96-3.84-15.36-3.99-3.95-.11-7.9-.22-11.86-.33-2.03-.06-4.09-.11-6.06.38-1.93.48-3.6,1.66-5.31,2.63-1.91,1.09-3.82,2.17-5.73,3.26-.73.42-1.48.85-2.01,1.5-.23.28-.42.62-.41.98.03.77.9,1.18,1.65,1.36,1.51.36,3.07.47,4.62.3,1.07-.11,1.8-.07,2.03,1.06.09.44.18.89.07,1.33-.12.43-.42.77-.69,1.13-2.32,3.16-1.21,7.88,1.46,10.75,1.96,2.1,4.55,3.43,7.19,4.48,1.24.49,2.4.83,3.48,1.58,1.22.83,2.33,1.8,3.57,2.6Z"></path><path class="cls-1" d="M355.54,88.94l1.81,8.13-32.37-1.57-6.46-3.17,34.97-4.38c1.58-.2,1.88-.6,2.05.99Z"></path><path class="cls-18" d="M337.35,132.38s-2.42-5.58-2.23-6.23,7.63-10.98,30.51-9.49l4.09,7.79-32.37,7.93Z"></path><path class="cls-18" d="M343.65,308.26s89.99-70.54,29.47-187.88c0,0-37.75,3.15-39.14,15.34,0,0,40.32,88.67-9.73,104.89-50.06,16.22,19.4,67.64,19.4,67.64Z"></path><path class="cls-10" d="M354.85,297.53c-6.51,7.07-11.2,10.74-11.2,10.74,0,0-69.45-51.42-19.4-67.64,50.06-16.23,9.74-104.9,9.74-104.9,1.11-9.77,25.59-13.73,35.25-14.92h.01c2.39-.3,3.87-.42,3.87-.42,46.71,90.56,3.76,153.25-18.27,177.14Z"></path><path class="cls-11" d="M354.85,297.53c-16.83-14.56-49.7-48.22-10.95-60.78,50.06-16.22,9.73-104.89,9.73-104.89.58-5.15,7.64-8.68,15.61-11.05h.01c2.39-.3,3.87-.42,3.87-.42,46.71,90.56,3.76,153.25-18.27,177.14Z"></path><path class="cls-18" d="M374.93,84.15c-.47,1.81-3.2,3.2-5.2,3.4-2.68.27-65.5,7.62-68.23,7.94-.07,0-.13,0-.19,0l-10.18-1.07c-.5-.06-.79-.45-.82-.86-.02-.33.13-.67.49-.86l9.34-4.93c.1-.06.21-.09.32-.1l69.27-7.94s2.42-.56,4.65,2.24c.61.76.75,1.51.55,2.18Z"></path><path class="cls-9" d="M374.93,84.15c-.47,1.81-3.2,3.2-5.2,3.4-2.68.27-65.5,7.62-68.23,7.94-.07,0-.13,0-.19,0l-10.18-1.07c-.5-.06-.79-.45-.82-.86t.02,0s8.36-2.72,9.89-2.72,69.51-8.03,69.51-8.03c0,0,4.07-.49,5.2,1.35Z"></path><path class="cls-17" d="M323.12,94.89s-9.21-5.86-13.3-5.02-5.77,8.56,6.17,15.25,7.13-10.23,7.13-10.23Z"></path></g><g id="hand_1" data-name="hand 1"><path class="cls-17" d="M177.66,392.1c-2.95-1.89-5.14-4.78-7.53-7.35-1.14-1.23-2.21-2.55-2.98-4.05-.55-1.08-1.02-2.31-2.06-2.93-.76-.45-1.69-.49-2.58-.51-4.72-.1-9.6-.11-14.11,1.45-2.62.91-3.54,1.45-3.97,4.21s-.15,5.35.36,7.95c.68,3.43,1.8,6.76,2.5,10.18.73,3.54,1.01,7.18,1.87,10.69s2.39,7.01,5.14,9.36c4.1,3.52,9.96,3.84,15.36,3.99,3.95.11,7.9.22,11.86.33,2.03.06,4.09.11,6.06-.38,1.93-.48,3.6-1.66,5.31-2.63,1.91-1.09,3.82-2.17,5.73-3.26.73-.42,1.48-.85,2.01-1.5.23-.28.42-.62.41-.98-.03-.77-.9-1.18-1.65-1.36-1.51-.36-3.07-.47-4.62-.3-1.07.11-1.8.07-2.03-1.06-.09-.44-.18-.89-.07-1.33.12-.43.42-.77.69-1.13,2.32-3.16,1.21-7.88-1.46-10.75-1.96-2.1-4.55-3.43-7.19-4.48-1.24-.49-2.4-.83-3.48-1.58-1.22-.83-2.33-1.8-3.57-2.6Z"></path><path class="cls-15" d="M150.11,414.96c-.05-.14-.1-.27-.15-.41-.83-2.44-1.15-5.18-1.72-7.7,0,0,31.89,1.55,32.37,1.57,1.89.09,4.74,2.33,6.46,3.16-1.31.45-1.85,3.96-2.29,5.24-.73,2.12-1.5,4.3-3.03,5.93-2.46,2.62-6.34,3.28-9.93,3.32-4.28.06-8.62-.56-12.52-2.33-3.76-1.71-7.66-4.82-9.19-8.79Z"></path><path class="cls-18" d="M219.91,402.67s-12.81,35.07-17.95,47.74c-1.09,2.69-1.83,4.36-2.03,4.49-5.07,3.21-34.62-9.44-36.11-12.04-.43-.75,1.45-5.06,4.35-10.84l.03-.06c7.25-14.47,20.86-38.08,20.86-38.08.72-1.26,2.25-1.86,2.25-1.86,0,0,27.72,7.26,28.46,8,.75.74.14,2.65.14,2.65Z"></path><path class="cls-16" d="M219.91,402.67s-12.81,35.07-17.95,47.74c-5.64,2.76-34.43-9.59-35.9-12.17-.3-.53.55-2.85,2.11-6.22l.03-.06c7.25-14.47,20.86-38.08,20.86-38.08.72-1.26,2.25-1.86,2.25-1.86,0,0,27.72,7.26,28.46,8,.75.74.14,2.65.14,2.65Z"></path><path class="cls-14" d="M191.11,394.18s-23.28,40.38-21.98,42.65,27.03,13.28,31.45,10.49c1.01-.64,17.4-45.49,17.4-45.49,0,0-.35-.58-.99-1.23s-24.79-6.97-24.79-6.97c0,0-.46-.56-1.08.54Z"></path><path class="cls-18" d="M168.25,371.54s2.42,5.58,2.23,6.23-7.63,10.98-30.51,9.49l-4.09-7.79,32.37-7.93Z"></path><path class="cls-18" d="M161.95,195.65s-89.99,70.54-29.47,187.88c0,0,37.75-3.15,39.14-15.34,0,0-40.32-88.67,9.73-104.89,50.06-16.22-19.4-67.64-19.4-67.64Z"></path><path class="cls-12" d="M150.76,206.39c6.51-7.07,11.2-10.74,11.2-10.74,0,0,69.45,51.42,19.4,67.64-50.06,16.23-9.74,104.9-9.74,104.9-1.11,9.77-25.59,13.73-35.25,14.92h-.01c-2.39.3-3.87.42-3.87.42-46.71-90.56-3.76-153.25,18.27-177.14Z"></path><path class="cls-13" d="M150.76,206.39c16.83,14.56,49.7,48.22,10.95,60.78-50.06,16.22-9.73,104.89-9.73,104.89-.58,5.15-7.64,8.68-15.61,11.05h-.01c-2.39.3-3.87.42-3.87.42-46.71-90.56-3.76-153.25,18.27-177.14Z"></path><path class="cls-17" d="M179.03,407.73s12.66,7.16,16.75,6.32,5.77-8.56-6.17-15.25-10.58,8.93-10.58,8.93Z"></path></g><g id="paper_plane_1" data-name="paper plane 1"><g><polygon class="cls-18" points="127.94 99.51 140.12 109.66 114.47 166.89 127.94 99.51"></polygon><polygon class="cls-18" points="163.43 121.41 143.91 111.96 114.38 166.84 163.43 121.41"></polygon><polygon class="cls-18" points="140.12 109.66 153.92 109.29 143.91 111.96 114.38 166.84 140.12 109.66"></polygon><polygon class="cls-6" points="140.12 109.66 153.92 109.29 143.91 111.96 114.38 166.84 140.12 109.66"></polygon><polygon class="cls-18" points="151.07 115.43 153.92 109.29 143.91 111.96 151.07 115.43"></polygon><polygon class="cls-3" points="151.07 115.43 153.92 109.29 143.91 111.96 151.07 115.43"></polygon></g><path class="cls-18" d="M165.47,104.8c3.34-4.54,7.97-8.09,13.27-10.05s12.99-2.41,15.76,3.73c.56,1.25.79,2.7.43,4.03-.41,1.54-1.92,3.33-3.7,2.76-2.8-.9-2.46-5.12-1.67-7.24,2.13-5.69,8.4-7.98,14.03-7.8,3.63.12,7.22,1.01,10.67,2.06s6.57,2.36,9.46,4.34c.4.27.77-.38.38-.65-3.06-2.1-6.51-3.49-10.06-4.54s-7.51-2-11.37-1.98c-6.05.04-12.87,3.24-14.23,9.71-.47,2.25-.18,5.55,2.2,6.66s4.74-1.39,5.12-3.66c.46-2.78-1.01-5.55-3.12-7.28-2.57-2.11-6.03-2.56-9.24-2.13-7.41.99-14.22,5.71-18.58,11.64-.29.39.36.76.65.38h0Z"></path></g><g id="paper_plane_2" data-name="paper plane 2"><g><polygon class="cls-18" points="406.84 334.1 392.14 328.17 399.03 265.84 406.84 334.1"></polygon><polygon class="cls-18" points="366.35 324.12 387.83 327.14 399.13 265.85 366.35 324.12"></polygon><polygon class="cls-18" points="392.14 328.17 379.11 332.75 387.83 327.14 399.13 265.85 392.14 328.17"></polygon><polygon class="cls-4" points="392.14 328.17 379.11 332.75 387.83 327.14 399.13 265.85 392.14 328.17"></polygon><polygon class="cls-18" points="379.95 326.03 379.11 332.75 387.83 327.14 379.95 326.03"></polygon><polygon class="cls-5" points="379.95 326.03 379.11 332.75 387.83 327.14 379.95 326.03"></polygon></g><path class="cls-18" d="M375.38,345.82c-1.34,5.58-4.29,10.7-8.51,14.6-4.13,3.81-11,7.05-15.84,2.48-1.75-1.65-3.17-5.48-.59-7.15,1.61-1.04,3.42.39,4.24,1.76.73,1.21,1.08,2.64,1.11,4.05.13,5.97-4.59,10.43-9.79,12.45-3.1,1.2-6.41,1.77-9.7,2.16-3.8.45-7.64.57-11.41-.21-.47-.1-.67.63-.2.72,3.99.82,8.06.68,12.08.18,3.43-.43,6.88-1.05,10.08-2.4,5.57-2.34,10.55-7.71,9.57-14.18-.37-2.44-2.07-5.81-4.99-5.63-2.51.15-3.46,3.12-3.02,5.22.56,2.65,2.8,4.61,5.27,5.49,3.02,1.08,6.29.4,9.06-1.06,6.83-3.57,11.58-10.94,13.35-18.29.11-.47-.61-.67-.72-.2h0Z"></path></g><g id="letter"><path class="cls-18" d="M228.82,62.15s45.93-6.98,54.86-1.95,2.23,34.33,10.33,44.09,15.35,11.44,17.86,25.12-8.93,23.16-8.93,23.16l-75.35-7.89s41.5-10.65,26.79-21.41c-15.44-11.3-18.98-25.95-16.19-38.23s-9.38-22.88-9.38-22.88Z"></path><path class="cls-8" d="M228.82,62.15s45.93-6.98,54.86-1.95,2.23,34.33,10.33,44.09,15.35,11.44,17.86,25.12-8.93,23.16-8.93,23.16l-75.35-7.89s41.5-10.65,26.79-21.41c-15.44-11.3-18.98-25.95-16.19-38.23s-9.38-22.88-9.38-22.88Z"></path><path class="cls-18" d="M238.37,78.43s-13.95-2.89-21.76,2.14c0,0-2.38-19.91,12.21-18.42s9.56,16.28,9.56,16.28Z"></path><g><rect class="cls-18" x="253.12" y="69.25" width="29.03" height="1" transform="translate(-1.56 6.29) rotate(-1.34)"></rect><rect class="cls-18" x="254.09" y="79.79" width="13.04" height="1" transform="translate(-2.8 9.72) rotate(-2.13)"></rect><rect class="cls-18" x="273.55" y="77.02" width="1" height="5.67" transform="translate(189.11 352.38) rotate(-88.94)"></rect><path class="cls-18" d="M255.19,93.76l-.18-.98c5.81-1.07,11.74-1.45,17.63-1.12l-.05,1c-5.81-.32-11.66.05-17.39,1.1Z"></path><rect class="cls-18" x="277.26" y="91.23" width="4.09" height="1"></rect><path class="cls-18" d="M260.85,109.14l-.47-.88c2.51-1.33,5.25-1.78,8.33-2.2,5.77-.78,11.64-1.39,17.44-1.82l.07,1c-5.78.42-11.63,1.03-17.38,1.81-2.98.4-5.63.84-7.99,2.09Z"></path><path class="cls-18" d="M271.6,118.57l-.24-.97c5.52-1.34,11.17-2.39,16.81-3.12l.13.99c-5.6.72-11.22,1.76-16.7,3.1Z"></path><path class="cls-18" d="M271.44,131.89l-.21-.98,9.08-1.94c3.58-.77,7.29-1.56,11.05-1.62,3.18-.04,6.45.45,9.25.92l-.17.99c-2.75-.46-5.95-.95-9.07-.91-3.66.06-7.32.84-10.85,1.59l-9.08,1.94Z"></path></g></g><g id="earth"><circle class="cls-18" cx="250" cy="250" r="113.73"></circle><path class="cls-7" d="M363.73,250c0,62.82-50.92,113.74-113.73,113.74s-113.73-50.92-113.73-113.74c0-.34,0-.68,0-1.02.34-38.72,20.03-72.83,49.88-93.11,18.2-12.37,40.17-19.6,63.84-19.6,15.23,0,29.76,2.99,43.03,8.41h0c32.51,13.32,57.49,41.23,66.77,75.59,2.56,9.48,3.92,19.44,3.92,29.72Z"></path><path class="cls-18" d="M227.54,287.07c-1.95,5.92-6.13,10.78-9.24,16.18-3.1,5.39-5.1,12.18-2.33,17.76.87,1.76,2.22,3.43,2.21,5.39,0,2.87-2.75,4.81-4.81,6.81-2.05,2-3.45,5.77-1.11,7.44-4.19,5.14-12.77,1.07-16.52-4.39-3.77-5.46-6.4-12.58-12.64-14.84-2.15-.78-4.65-.92-6.33-2.46-1.61-1.47-2.01-3.79-2.55-5.91-1.79-7-6.08-13.33-11.9-17.6-.91-.66-1.93-1.39-2.17-2.49-.18-.86.17-1.74.56-2.53,3.96-7.99,12.98-14.61,11.5-23.41-1.04-6.1-6.82-9.99-11.31-14.24-4.5-4.25-8.08-11.51-4.16-16.3-7.45-.7-14.92,5.2-15.97,12.62-1.49-.04-2.99-.08-4.48-.12.34-38.72,20.03-72.83,49.88-93.11,2.14,3.01,4.02,6.23,5.84,8.97,4.26,6.43,6.99,14.96,3.37,21.77-1.66,3.13-4.46,5.5-6.36,8.47-1.9,2.98-2.71,7.25-.31,9.86-6.68,2.59-13.37,5.17-20.05,7.77,1.14,4.05,2.25,8.54.4,12.32-.74,1.53-1.91,2.8-2.85,4.21-4.74,7.19-1.86,18.22,5.79,22.17,13.54-3.38,27.67-4.41,41.56-3.05,2.15.21,4.39.52,6.12,1.79,1.97,1.45,2.92,3.87,3.77,6.16,3.69,9.9,7.4,20.74,4.1,30.76Z"></path><path class="cls-18" d="M352.15,221.35c.81-4.12-1.66-8.63-5.57-10.17-.49-.19-1.06-.34-1.52-.1-.48.24-.69.79-.86,1.3-1.03,3.13-1.94,6.3-2.71,9.5,5.74,2.12,10.96,6.01,13.96,11.33,3.01,5.33,3.57,12.15.81,17.61-1.94,3.83-5.4,6.95-6.25,11.17-1.03,5.13,1.9,11.34-1.62,15.22-2.54,2.79-7.97,3.7-7.83,7.46.05,1.48,1.06,3.1.18,4.28-.38.51-.99.75-1.57.95-4.5,1.56-9.37,2.06-14.09,1.47-1.43-.18-2.92-.49-4.05-1.39-1.07-.85-1.71-2.13-2.25-3.39-3.41-8.07-4.6-17.81-11.49-23.22-5.26-4.12-12.98-4.87-17.12-10.13-1.6-2.03-2.47-4.54-3.93-6.68-2.63-3.84-7.06-6.34-9.1-10.53-1.7-3.47-1.41-7.84.73-11.05.41-.62.88-1.2,1.42-1.7,3.04-2.87,7.61-3.24,11.8-3.45.09-1.42.17-2.83.26-4.25-3.87,1.33-8.05,2.67-12,1.56-4.04-1.14-6.91-4.62-9.52-7.91-1.02-1.28-2.1-2.78-1.86-4.4.31-2.11,2.66-3.25,4.77-3.59,2.11-.34,4.4-.3,6.14-1.54.12-2.61.24-5.22.37-7.84.03-.73.09-1.51.58-2.05.6-.66,1.61-.68,2.49-.67,6.15.1,12.3.21,18.45.31-1.15-1.59-.42-3.98,1.07-5.27,1.49-1.28,3.49-1.76,5.41-2.19-.02-1.48-.36-2.95-.99-4.3-2.35.61-4.69,1.22-7.03,1.83-.84-1.63-1.68-3.28-2.52-4.91-3.37,2.81-8.94.38-12.66,2.71.69,1.25.61,2.88-.19,4.06-1.98.12-3.96.24-5.94.37,2.25-2.07,4.12-4.53,5.51-7.25-2.59,1.79-6.05-.53-9.18-.33-1.21.07-2.35.53-3.48,1-2.24.91-4.47,1.82-6.71,2.73-2.22.9-4.66,1.82-6.96,1.14-2.3-.68-3.93-3.78-2.32-5.57-1.42-.66-2.39-2.18-2.38-3.75,2.79.39,6.43.31,7.43-2.32.34-.91.24-1.92.27-2.89.08-2.45,1.32-5.15,3.69-5.77,3.24-.86,5.91,2.4,8.78,4.11,3.09,1.83,6.89,1.91,10.48,1.83,3.04-.07,6.35-.32,8.6-2.37,2.25-2.05,2.28-6.54-.58-7.58-3.3,2.25-7.85,2.5-11.39.64,1.28-1.14,2.57-2.27,3.86-3.41-4.08-.3-8.25,1.61-10.69,4.88-2.58-1.22-5.43-1.86-8.27-1.85-.84-3.76,2.32-7.44,5.94-8.73,3.62-1.28,7.59-.87,11.44-.79,3.7.09,7.38-.45,11.06-.8h0c32.51,13.32,57.49,41.23,66.77,75.59-.12.24-.24.5-.34.75-2.44.11-4.88.23-7.32.33Z"></path></g></svg>