<svg transform="scale(4)" id="qrGXhxuOsk" xmlns="http://www.w3.org/2000/svg" xmlns:xlink="http://www.w3.org/1999/xlink" viewBox="0 0 500 500" class="pbimage_pbimage__wrapper__image__0LEis false"><title>Coding 7</title><defs><style> .cls-1{fill:url(#linear-gradient-qrGXhxuOsk);} .cls-1, .cls-2, .cls-3, .cls-4, .cls-5, .cls-6, .cls-7, .cls-8, .cls-9, .cls-10, .cls-11, .cls-12{stroke-width:0px;} .cls-2{opacity:.2;} .cls-2, .cls-7, .cls-10{fill:#fff;} .cls-3{isolation:isolate;opacity:.18;} .cls-3, .cls-4, .cls-12{fill:#68e1fd;} .cls-13{opacity:.22;} .cls-14{opacity:.31;} .cls-4{opacity:.28;} .cls-5{fill:url(#linear-gradient-2-qrGXhxuOsk);} .cls-6{fill:url(#linear-gradient-3-qrGXhxuOsk);} .cls-7{opacity:.57;} .cls-8{fill:#231f20;} .cls-9{fill:#e2887d;} .cls-11{fill:#fdb9a9;}
 .cls-3, .cls-4, .cls-12{fill:#68E1FD;}
 .cls-2, .cls-7, .cls-10{fill:#FFFFFF;}
 .cls-11{fill:#FDB9A9;}
 .cls-9{fill:#E2887D;}
 .cls-8{fill:#231F20;}</style><linearGradient id="linear-gradient-qrGXhxuOsk" x1="-110.42" y1="326.7" x2="167.06" y2="392.96" gradientUnits="userSpaceOnUse"><stop offset="0" stop-color="#000" style="stop-color: rgb(0, 0, 0);"></stop><stop offset=".08" stop-color="#000" stop-opacity=".69" style="stop-color: rgb(0, 0, 0);"></stop><stop offset=".21" stop-color="#000" stop-opacity=".32" style="stop-color: rgb(0, 0, 0);"></stop><stop offset="1" stop-color="#000" stop-opacity="0" style="stop-color: rgb(0, 0, 0);"></stop></linearGradient><linearGradient id="linear-gradient-2-qrGXhxuOsk" x1="63.59" y1="398.64" x2="268.13" y2="427.86" xlink:href="#linear-gradient-qrGXhxuOsk"></linearGradient><linearGradient id="linear-gradient-3-qrGXhxuOsk" x1="460.66" y1="-74.91" x2="36.48" y2="494.4" xlink:href="#linear-gradient-qrGXhxuOsk"></linearGradient></defs><path class="cls-3" id="background" d="M472.97,356.36c-13.92,22.03-33.87,39.6-54.84,55.09-3.51,2.6-7.06,5.14-10.66,7.62-3.19,2.21-6.42,4.37-9.68,6.47-12.56,8.11-25.65,15.38-39.37,21.31-19.16,8.27-39.24,13.81-59.76,17.49-18.04,3.23-36.41,5.03-54.79,5.98-5.9.32-11.81.54-17.71.69-1.65.05-3.3.09-4.96.12-.85.02-1.7.03-2.55.05-2.37.04-4.75.07-7.13.09-6.01.06-12.02.04-18.04-.09-5.18-.1-10.44.26-15.61-.04-6.11-.34-12.12-1.38-18.19-2.05-10.83-1.19-21.58-2.96-32.19-5.51-2.05-.49-4.09-1.02-6.12-1.59-4.37-1.2-8.67-2.55-12.92-4.06-13.25-4.67-25.9-10.8-37.88-18.38C29.01,413.23,3.36,360.02,6.35,311.22c1.53-25.14,2.61-50.83,9.2-75.28,6.21-23.03,10.52-47.55,20.34-69.36,9.98-22.17,24.59-42.06,41.14-59.77,12.03-12.87,25.2-24.79,39.93-34.47,30.53-20.08,67.29-30.03,103.84-29.99,36.54.03,72.8,9.82,105.33,26.47,13.94,7.13,27.41,15.65,38.03,27.15,9.23,10,16.07,21.99,25.1,32.16,16.56,18.66,39.37,30.11,56.81,47.78,18.18,18.43,34.52,43.19,42.09,68.11,11.33,37.29,5.64,79.4-15.19,112.34Z"></path><g id="character_2"><path class="cls-11" d="M372.8,275.36c1.1-12.16,2.07-25.02-3.24-36.01-1.78-3.68-5.14-8.74-2.13-12.59,5.78-7.38,9.47,6.05,12.52,8.78.21.19,3.21-10.76,3.34-11.82.43-3.61,1.26-6.98,2.81-10.31,3.16-6.75,8.54-12.49,15.2-15.88.5,3.36-1.74,6.43-3.48,9.36-2.36,3.97-3.98,8.39-4.74,12.95,2.39-3.09,6.73-4.51,10.49-3.45.23,2.16,1.8,3.88,3.09,5.63s2.38,4.02,1.55,6.02c2.98,1.09,5.35,3.71,6.13,6.79,1.07,4.21-1.71,7.17-2.01,11.05-.32,4.12-.68,8.47-3.81,11.54-2.87,2.81-7.71,3.74-9.21,7.46-.92,2.28-.21,4.87-.45,7.32-.07.68-.22,1.37-.63,1.91-.85,1.1-2.46,1.18-3.85,1.16-7.54-.11-15.09-.21-22.63-.32" fill="#FDB9A9"></path><path class="cls-8" d="M241.4,252.54c-.59,1.01-1.17,2.01-1.76,3.02-8.16-5.99-11.47-16.36-15.4-25.7-2.46-5.85-5.37-11.69-5.83-18.02-.45-6.33,2.31-13.42,8.19-15.79.85-.34,1.79-.6,2.43-1.26.47-.48.73-1.12.98-1.74,1.57-4,2.93-8.19,5.67-11.49,4.24-5.12,11.02-7.23,17.4-9.1,6.84-2,14.34-3.97,20.9-1.2.78.33,1.57.73,2.42.71,1.13-.02,2.09-.77,2.98-1.46,2.73-2.1,5.74-3.95,9.09-4.72s7.12-.3,9.8,1.85c1.15.93,2.16,2.18,3.61,2.5.66.14,1.34.07,2.01.05,7.24-.22,13.91,6.53,13.61,13.77-.14,3.4-1.6,6.62-3.49,9.45-6.84,10.22-19.38,16.13-24.41,27.34-1.08,2.4-1.78,5-3.26,7.17-1.19,1.76-2.84,3.16-4.51,4.46-4.54,3.54-9.61,6.3-14.47,9.36-2.5,1.57-4.97,3.21-7.27,5.06-1.82,1.47-3.06,3.75-4.94,5-1.67,1.11-15.1,3.01-13.76.73Z" fill="#231F20"></path><path class="cls-11" d="M110.53,314.08c-.16-3.15-.15-6.32-.26-9.47-.19-5.48-.77-11.14-3.14-16.16-2.15-4.56-8.85-7.03-13.08-9.64-2.76-1.7-5.55-3.42-8.59-4.53-3.23-1.18-6.68-1.65-10.11-1.96-4.34-.39-8.71-.53-13.05-.17-1.61.13-3.29.36-4.61,1.29s-2.14,2.77-1.42,4.21c.97,1.95,3.69,1.91,5.87,1.87,3.68-.07,7.37.7,10.72,2.22,1.74.79,3.6,2.15,3.54,4.06-.13,4.08-5.54,3.16-7.95,4.26-3.54,1.61-4.02,6.42-3.54,10.28.11.85.23,1.72.05,2.55-.19.86-.68,1.61-1.04,2.41-1.77,3.93-.17,8.57,2.08,12.25.91,1.48,1.95,2.93,3.36,3.93,3.36,2.38,7.85,2.04,11.23,4.43,4.13,2.93,7.41,7.84,10.78,11.6.97,1.08,1.96,2.18,3.2,2.93,6.31,3.79,13.26-2.42,16.49-7.45,2.56-3.98.79-8.5.09-12.74-.33-2.05-.51-4.11-.62-6.17Z" fill="#FDB9A9"></path><path class="cls-12" d="M408.88,272.75c4.32,26.25,6.83,52.79,7.51,79.38.1,3.85.11,7.92-1.79,11.27-7.7,13.61-34.74,14.13-48,13.09-14.51-1.14-28.63-5.27-42.34-10.15-1.98,16.9-1.13,33.54-2.28,50.46-1.03,15.09-1.91,28.1-2.94,43.18-26.74,6.98-48.34,8.74-72.67,10-7.81.42-15.63.71-23.44.91-2.18.07-4.37.12-6.57.16-1.13.03-2.25.04-3.38.07-3.14.05-6.29.09-9.44.12-7.96.08-15.91.05-23.88-.12l-.12-55.8s-38.95,29.48-48.94,24.74c-10.01-4.74-43.16-90.01-42.11-94.22,1.06-4.21,23.55-22.35,23.55-22.35l38.03,44.45s32.63-62.11,40.01-67.9c7.36-5.8,45.31-17.17,45.31-17.17,0,0,37.3,2.42,37.32,2.42,33.2,2.16,61.55,26.51,92.32,39.29-2.01-19.2.04-38.82,5.97-57.19,12.38,3.16,25.11,4.95,37.89,5.32Z"></path><path class="cls-1" d="M112.02,323.52l-11.2,26.66,40.11,88.63s-7.33,4.12-10.35,1.27c-3.01-2.85-40.47-80.82-42.11-94.22l23.55-22.34Z"></path><path class="cls-5" d="M235.47,470.51s-32.65-8.13-32.66-51.48c0-10.81,0-56.43,0-56.43l-23.13,55.9-.03,52.63,55.82-.63Z"></path><path class="cls-11" d="M280.33,265.2s-10.88,18.25,0,32.63c10.88,14.39-23.86,11.23-30.88,5.97-7.02-5.26-17.19-17.09-17.19-17.09,0,0,20.23-10.13,16.84-42.92-3.38-32.79,31.23,21.4,31.23,21.4Z" fill="#FDB9A9"></path><path class="cls-9" d="M253.5,255.56s1.85,12.05,9.61,20.07c7.77,8.02,12.39,7.76,12.39,7.76l2.3-12.65-24.3-15.18Z" fill="#E2887D"></path><path class="cls-11" d="M301.73,200.64s10.88,58.6-4.56,67.37-34.39.35-39.3-6.32c-4.91-6.67-10.88-15.79-10.88-15.79,0,0-4.39,4.56-8.07-1.23-3.68-5.79-4.91-13.33-1.23-13.51s7.02.35,7.02.35c.13-4.04.46-8.09.95-12.1.36-2.94.79-5.91,1.6-8.77.29-1.03.58-2.33,1.21-3.21,1.06-1.5,3.35-2.1,5.09-2.46,1.27-.26,2.58-.37,3.88-.41,2.97-.09,5.95.2,8.91-.1,5.19-.52,10.18-2.91,13.85-6.62.5-.5.99-1.04,1.66-1.29.77-.28,1.62-.11,2.43.02,3.66.57,7.12-.79,10.65.05,2.11.5,6.33,1.38,6.81,4.02Z" fill="#FDB9A9"></path></g><g id="screen_2"><rect class="cls-4" x="350.33" y="144.51" width="104.37" height="60.85" rx="11.57" ry="11.57"></rect><path class="cls-10" d="M372.12,173.77l20.1-10.35v2.99l-16.94,8.49v.09l16.94,8.49v2.99l-20.1-10.35v-2.34Z"></path><path class="cls-10" d="M395.79,190.64l12.09-31.41h2.95l-12.13,31.41h-2.9Z"></path><path class="cls-10" d="M432.92,176.15l-20.1,10.31v-2.99l17.07-8.49v-.09l-17.07-8.49v-2.99l20.1,10.31v2.43Z"></path></g><g id="screen_1"><path class="cls-6" d="M432.85,350.34c-5.34,7-13.77,11.51-23.25,11.51H74.04c-16.15,0-29.24-13.09-29.24-29.24V105.01c0-8.12,3.31-15.47,8.65-20.76-3.78,4.92-6.01,11.07-6.01,17.75v227.6c0,16.15,13.09,29.24,29.24,29.24h335.56c8.04,0,15.33-3.25,20.61-8.5Z"></path><path class="cls-7" d="M438.84,105.01v227.6c0,6.66-2.24,12.81-5.99,17.73-5.28,5.25-12.57,8.5-20.61,8.5H76.68c-16.15,0-29.24-13.09-29.24-29.24V102c0-6.68,2.23-12.83,6.01-17.75,5.29-5.25,12.55-8.48,20.59-8.48h335.56c16.14,0,29.24,13.09,29.24,29.24Z"></path><path class="cls-2" d="M438.84,105.01v227.6c0,6.66-2.24,12.81-5.99,17.73-5.28,5.25-12.57,8.5-20.61,8.5H76.68c-16.15,0-29.24-13.09-29.24-29.24V102c0-6.68,2.23-12.83,6.01-17.75,5.29-5.25,12.55-8.48,20.59-8.48h335.56c16.14,0,29.24,13.09,29.24,29.24Z"></path><path class="cls-3" d="M438.84,105.01v5.16H44.8v-5.16c0-16.15,13.09-29.24,29.24-29.24h335.56c16.14,0,29.24,13.09,29.24,29.24Z"></path><g class="cls-14"><path class="cls-12" d="M100.94,139.38h-13.17c-1.41,0-2.52-1.15-2.47-2.57h0c.05-1.42,1.23-2.57,2.65-2.57h13.17c1.41,0,2.52,1.15,2.47,2.57h0c-.05,1.42-1.23,2.57-2.65,2.57Z"></path><path class="cls-12" d="M175,139.38h-58.7c-1.41,0-2.52-1.15-2.47-2.57h0c.05-1.42,1.23-2.57,2.65-2.57h58.7c1.41,0,2.52,1.15,2.47,2.57h0c-.05,1.42-1.23,2.57-2.65,2.57Z"></path><path class="cls-12" d="M100,167.24h-13.17c-1.41,0-2.52-1.15-2.47-2.57h0c.05-1.42,1.23-2.57,2.65-2.57h13.17c1.41,0,2.52,1.15,2.47,2.57h0c-.05,1.42-1.23,2.57-2.65,2.57Z"></path><path class="cls-12" d="M174.07,167.24h-58.7c-1.41,0-2.52-1.15-2.47-2.57h0c.05-1.42,1.23-2.57,2.65-2.57h58.7c1.41,0,2.52,1.15,2.47,2.57h0c-.05,1.42-1.23,2.57-2.65,2.57Z"></path><path class="cls-12" d="M100.47,153.31h-13.17c-1.41,0-2.52-1.15-2.47-2.57h0c.05-1.42,1.23-2.57,2.65-2.57h13.17c1.41,0,2.52,1.15,2.47,2.57h0c-.05,1.42-1.23,2.57-2.65,2.57Z"></path><path class="cls-12" d="M203.52,139.38h-13.17c-1.41,0-2.52-1.15-2.47-2.57h0c.05-1.42,1.23-2.57,2.65-2.57h13.17c1.41,0,2.52,1.15,2.47,2.57h0c-.05,1.42-1.23,2.57-2.65,2.57Z"></path><path class="cls-12" d="M146.91,153.31h-31.08c-1.41,0-2.52-1.15-2.47-2.57h0c.05-1.42,1.23-2.57,2.65-2.57h31.08c1.41,0,2.52,1.15,2.47,2.57h0c-.05,1.42-1.23,2.57-2.65,2.57Z"></path><path class="cls-12" d="M204.85,153.31h-42.57c-1.41,0-2.52-1.15-2.47-2.57h0c.05-1.42,1.23-2.57,2.65-2.57h42.57c1.41,0,2.52,1.15,2.47,2.57h0c-.05,1.42-1.23,2.57-2.65,2.57Z"></path><path class="cls-12" d="M261.46,139.38h-42.57c-1.41,0-2.52-1.15-2.47-2.57h0c.05-1.42,1.23-2.57,2.65-2.57h42.57c1.41,0,2.52,1.15,2.47,2.57h0c-.05,1.42-1.23,2.57-2.65,2.57Z"></path><path class="cls-12" d="M140.9,191.44h-13.17c-1.41,0-2.52-1.15-2.47-2.57h0c.05-1.42,1.23-2.57,2.65-2.57h13.17c1.41,0,2.52,1.15,2.47,2.57h0c-.05,1.42-1.23,2.57-2.65,2.57Z"></path><path class="cls-12" d="M214.96,191.44h-58.7c-1.41,0-2.52-1.15-2.47-2.57h0c.05-1.42,1.23-2.57,2.65-2.57h58.7c1.41,0,2.52,1.15,2.47,2.57h0c-.05,1.42-1.23,2.57-2.65,2.57Z"></path><path class="cls-12" d="M139.97,219.3h-13.17c-1.41,0-2.52-1.15-2.47-2.57h0c.05-1.42,1.23-2.57,2.65-2.57h13.17c1.41,0,2.52,1.15,2.47,2.57h0c-.05,1.42-1.23,2.57-2.65,2.57Z"></path><path class="cls-12" d="M214.03,219.3h-58.7c-1.41,0-2.52-1.15-2.47-2.57h0c.05-1.42,1.23-2.57,2.65-2.57h58.7c1.41,0,2.52,1.15,2.47,2.57h0c-.05,1.42-1.23,2.57-2.65,2.57Z"></path><path class="cls-12" d="M288.09,219.3h-58.7c-1.41,0-2.52-1.15-2.47-2.57h0c.05-1.42,1.23-2.57,2.65-2.57h58.7c1.41,0,2.52,1.15,2.47,2.57h0c-.05,1.42-1.23,2.57-2.65,2.57Z"></path><path class="cls-12" d="M371.07,219.3h-58.7c-1.41,0-2.52-1.15-2.47-2.57h0c.05-1.42,1.23-2.57,2.65-2.57h58.7c1.41,0,2.52,1.15,2.47,2.57h0c-.05,1.42-1.23,2.57-2.65,2.57Z"></path><path class="cls-12" d="M140.44,205.37h-13.17c-1.41,0-2.52-1.15-2.47-2.57h0c.05-1.42,1.23-2.57,2.65-2.57h13.17c1.41,0,2.52,1.15,2.47,2.57h0c-.05,1.42-1.23,2.57-2.65,2.57Z"></path><path class="cls-12" d="M243.49,191.44h-13.17c-1.41,0-2.52-1.15-2.47-2.57h0c.05-1.42,1.23-2.57,2.65-2.57h13.17c1.41,0,2.52,1.15,2.47,2.57h0c-.05,1.42-1.23,2.57-2.65,2.57Z"></path><path class="cls-12" d="M186.88,205.37h-31.08c-1.41,0-2.52-1.15-2.47-2.57h0c.05-1.42,1.23-2.57,2.65-2.57h31.08c1.41,0,2.52,1.15,2.47,2.57h0c-.05,1.42-1.23,2.57-2.65,2.57Z"></path><path class="cls-12" d="M244.81,205.37h-42.57c-1.41,0-2.52-1.15-2.47-2.57h0c.05-1.42,1.23-2.57,2.65-2.57h42.57c1.41,0,2.52,1.15,2.47,2.57h0c-.05,1.42-1.23,2.57-2.65,2.57Z"></path><path class="cls-12" d="M115.91,257.79h-13.17c-1.41,0-2.52-1.15-2.47-2.57h0c.05-1.42,1.23-2.57,2.65-2.57h13.17c1.41,0,2.52,1.15,2.47,2.57h0c-.05,1.42-1.23,2.57-2.65,2.57Z"></path><path class="cls-12" d="M189.97,257.79h-58.7c-1.41,0-2.52-1.15-2.47-2.57h0c.05-1.42,1.23-2.57,2.65-2.57h58.7c1.41,0,2.52,1.15,2.47,2.57h0c-.05,1.42-1.23,2.57-2.65,2.57Z"></path><path class="cls-12" d="M264.03,257.79h-58.7c-1.41,0-2.52-1.15-2.47-2.57h0c.05-1.42,1.23-2.57,2.65-2.57h58.7c1.41,0,2.52,1.15,2.47,2.57h0c-.05,1.42-1.23,2.57-2.65,2.57Z"></path><path class="cls-12" d="M116.38,243.86h-13.17c-1.41,0-2.52-1.15-2.47-2.57h0c.05-1.42,1.23-2.57,2.65-2.57h13.17c1.41,0,2.52,1.15,2.47,2.57h0c-.05,1.42-1.23,2.57-2.65,2.57Z"></path><path class="cls-12" d="M162.82,243.86h-31.08c-1.41,0-2.52-1.15-2.47-2.57h0c.05-1.42,1.23-2.57,2.65-2.57h31.08c1.41,0,2.52,1.15,2.47,2.57h0c-.05,1.42-1.23,2.57-2.65,2.57Z"></path><path class="cls-12" d="M220.75,243.86h-42.57c-1.41,0-2.52-1.15-2.47-2.57h0c.05-1.42,1.23-2.57,2.65-2.57h42.57c1.41,0,2.52,1.15,2.47,2.57h0c-.05,1.42-1.23,2.57-2.65,2.57Z"></path><path class="cls-12" d="M333.23,191.44h-33.38c-1.11,0-1.98-1.15-1.94-2.57h0c.04-1.42.97-2.57,2.07-2.57h33.38c1.11,0,1.98,1.15,1.94,2.57h0c-.04,1.42-.97,2.57-2.07,2.57Z"></path></g><g class="cls-13"><path class="cls-8" d="M147.98,281.67h-13.17c-1.41,0-2.52-1.15-2.47-2.57h0c.05-1.42,1.23-2.57,2.65-2.57h13.17c1.41,0,2.52,1.15,2.47,2.57h0c-.05,1.42-1.23,2.57-2.65,2.57Z"></path><path class="cls-8" d="M222.04,281.67h-58.7c-1.41,0-2.52-1.15-2.47-2.57h0c.05-1.42,1.23-2.57,2.65-2.57h58.7c1.41,0,2.52,1.15,2.47,2.57h0c-.05,1.42-1.23,2.57-2.65,2.57Z"></path><path class="cls-8" d="M147.04,309.53h-13.17c-1.41,0-2.52-1.15-2.47-2.57h0c.05-1.42,1.23-2.57,2.65-2.57h13.17c1.41,0,2.52,1.15,2.47,2.57h0c-.05,1.42-1.23,2.57-2.65,2.57Z"></path><path class="cls-8" d="M221.1,309.53h-58.7c-1.41,0-2.52-1.15-2.47-2.57h0c.05-1.42,1.23-2.57,2.65-2.57h58.7c1.41,0,2.52,1.15,2.47,2.57h0c-.05,1.42-1.23,2.57-2.65,2.57Z"></path><path class="cls-8" d="M147.51,295.6h-13.17c-1.41,0-2.52-1.15-2.47-2.57h0c.05-1.42,1.23-2.57,2.65-2.57h13.17c1.41,0,2.52,1.15,2.47,2.57h0c-.05,1.42-1.23,2.57-2.65,2.57Z"></path><path class="cls-8" d="M250.56,281.67h-13.17c-1.41,0-2.52-1.15-2.47-2.57h0c.05-1.42,1.23-2.57,2.65-2.57h13.17c1.41,0,2.52,1.15,2.47,2.57h0c-.05,1.42-1.23,2.57-2.65,2.57Z"></path><path class="cls-8" d="M193.95,295.6h-31.08c-1.41,0-2.52-1.15-2.47-2.57h0c.05-1.42,1.23-2.57,2.65-2.57h31.08c1.41,0,2.52,1.15,2.47,2.57h0c-.05,1.42-1.23,2.57-2.65,2.57Z"></path><path class="cls-8" d="M251.88,295.6h-42.57c-1.41,0-2.52-1.15-2.47-2.57h0c.05-1.42,1.23-2.57,2.65-2.57h42.57c1.41,0,2.52,1.15,2.47,2.57h0c-.05,1.42-1.23,2.57-2.65,2.57Z"></path><path class="cls-8" d="M308.49,281.67h-42.57c-1.41,0-2.52-1.15-2.47-2.57h0c.05-1.42,1.23-2.57,2.65-2.57h42.57c1.41,0,2.52,1.15,2.47,2.57h0c-.05,1.42-1.23,2.57-2.65,2.57Z"></path></g></g></svg>