<svg transform="scale(4)" id="p6EfN5yObf" xmlns="http://www.w3.org/2000/svg" xmlns:xlink="http://www.w3.org/1999/xlink" viewBox="0 0 500 500" class="pbimage_pbimage__wrapper__image__0LEis false"><title>Artificial Intelligence 3</title><defs><style> .cls-1{opacity:.15;} .cls-1, .cls-2, .cls-3, .cls-4, .cls-5, .cls-6, .cls-7, .cls-8, .cls-9, .cls-10, .cls-11, .cls-12, .cls-13, .cls-14, .cls-15, .cls-16, .cls-17, .cls-18{stroke-width:0px;} .cls-1, .cls-7, .cls-8{isolation:isolate;} .cls-1, .cls-8, .cls-18{fill:#68e1fd;} .cls-2{fill:url(#linear-gradient-p6EfN5yObf);} .cls-3{fill:url(#linear-gradient-11-p6EfN5yObf);} .cls-4{fill:url(#linear-gradient-12-p6EfN5yObf);} .cls-5{fill:url(#linear-gradient-13-p6EfN5yObf);} .cls-6{fill:url(#linear-gradient-10-p6EfN5yObf);} .cls-7{opacity:.55;} .cls-7, .cls-17{fill:#fff;} .cls-8, .cls-19{opacity:.82;} .cls-9{fill:url(#linear-gradient-4-p6EfN5yObf);} .cls-10{fill:url(#linear-gradient-2-p6EfN5yObf);} .cls-11{fill:url(#linear-gradient-3-p6EfN5yObf);} .cls-12{fill:url(#linear-gradient-8-p6EfN5yObf);} .cls-13{fill:url(#linear-gradient-9-p6EfN5yObf);} .cls-14{fill:url(#linear-gradient-7-p6EfN5yObf);} .cls-15{fill:url(#linear-gradient-5-p6EfN5yObf);} .cls-16{fill:url(#linear-gradient-6-p6EfN5yObf);}
 .cls-7, .cls-17{fill:#FFFFFF;}
 .cls-1, .cls-8, .cls-18{fill:#68E1FD;}</style><linearGradient id="linear-gradient-p6EfN5yObf" x1="138.51" y1="49.53" x2="506.3" y2="536.69" gradientUnits="userSpaceOnUse"><stop offset="0" stop-color="#fff" style="stop-color: rgb(255, 255, 255);"></stop><stop offset="1" stop-color="#fff" stop-opacity="0" style="stop-color: rgb(255, 255, 255);"></stop></linearGradient><linearGradient id="linear-gradient-2-p6EfN5yObf" x1="255.03" y1="363.22" x2="322.02" y2="387.61" gradientTransform="translate(567.89) rotate(-180) scale(1 -1)" gradientUnits="userSpaceOnUse"><stop offset="0" stop-color="#221f20" style="stop-color: rgb(34, 31, 32);"></stop><stop offset=".08" stop-color="#221f20" stop-opacity=".69" style="stop-color: rgb(34, 31, 32);"></stop><stop offset=".21" stop-color="#221f20" stop-opacity=".32" style="stop-color: rgb(34, 31, 32);"></stop><stop offset="1" stop-color="#221f20" stop-opacity="0" style="stop-color: rgb(34, 31, 32);"></stop></linearGradient><linearGradient id="linear-gradient-3-p6EfN5yObf" x1="293.56" y1="-1217.78" x2="354.66" y2="-1231.74" gradientTransform="translate(-43.92 1476.47)" xlink:href="#linear-gradient-2-p6EfN5yObf"></linearGradient><linearGradient id="linear-gradient-4-p6EfN5yObf" x1="280.96" y1="-1241.21" x2="334.97" y2="-1265.43" gradientTransform="translate(-43.92 1476.47)" gradientUnits="userSpaceOnUse"><stop offset="0" stop-color="#221f20" style="stop-color: rgb(34, 31, 32);"></stop><stop offset=".2" stop-color="#221f20" stop-opacity=".69" style="stop-color: rgb(34, 31, 32);"></stop><stop offset=".23" stop-color="#221f20" stop-opacity=".6" style="stop-color: rgb(34, 31, 32);"></stop><stop offset=".35" stop-color="#221f20" stop-opacity=".25" style="stop-color: rgb(34, 31, 32);"></stop><stop offset=".52" stop-color="#221f20" stop-opacity=".06" style="stop-color: rgb(34, 31, 32);"></stop><stop offset="1" stop-color="#221f20" stop-opacity="0" style="stop-color: rgb(34, 31, 32);"></stop></linearGradient><linearGradient id="linear-gradient-5-p6EfN5yObf" x1="297.32" y1="-1304.81" x2="209.73" y2="-1255.38" xlink:href="#linear-gradient-4-p6EfN5yObf"></linearGradient><linearGradient id="linear-gradient-6-p6EfN5yObf" x1="203.36" y1="-1196.89" x2="327.42" y2="-1216.99" gradientTransform="translate(-43.92 1476.47)" xlink:href="#linear-gradient-2-p6EfN5yObf"></linearGradient><linearGradient id="linear-gradient-7-p6EfN5yObf" x1="190.64" y1="-1235.32" x2="272.69" y2="-1171.61" gradientTransform="translate(-43.92 1476.47)" xlink:href="#linear-gradient-2-p6EfN5yObf"></linearGradient><linearGradient id="linear-gradient-8-p6EfN5yObf" x1="204.76" y1="-1233.15" x2="309.12" y2="-1288.45" xlink:href="#linear-gradient-4-p6EfN5yObf"></linearGradient><linearGradient id="linear-gradient-9-p6EfN5yObf" x1="367.42" y1="-1179.86" x2="339.93" y2="-1264.09" gradientTransform="translate(-43.92 1476.47)" xlink:href="#linear-gradient-2-p6EfN5yObf"></linearGradient><linearGradient id="linear-gradient-10-p6EfN5yObf" x1="179.76" y1="-1123.68" x2="393.18" y2="-1186.52" gradientTransform="translate(-43.92 1476.47)" xlink:href="#linear-gradient-2-p6EfN5yObf"></linearGradient><linearGradient id="linear-gradient-11-p6EfN5yObf" x1="165.08" y1="365.68" x2="233.54" y2="390.61" gradientTransform="matrix(1,0,0,1,0,0)" xlink:href="#linear-gradient-2-p6EfN5yObf"></linearGradient><linearGradient id="linear-gradient-12-p6EfN5yObf" x1="231.67" y1="148.34" x2="305.71" y2="257.73" gradientTransform="matrix(1,0,0,1,0,0)" xlink:href="#linear-gradient-4-p6EfN5yObf"></linearGradient><linearGradient id="linear-gradient-13-p6EfN5yObf" x1="283.05" y1="-1172.75" x2="345.24" y2="-1215.96" gradientTransform="translate(-647.87 1227.92) rotate(-124.92) scale(1 -1)" xlink:href="#linear-gradient-2-p6EfN5yObf"></linearGradient></defs><path class="cls-1" id="background" d="M467.47,352.67c10.39-29.72,14.65-62.14,13.12-90.82-2.09-39.17-17.3-78.56-46.36-104.9-16.47-14.94-36.63-25.2-53.85-39.27-28.01-22.89-48.67-56.04-82.03-70.02-17.06-7.15-35.98-8.52-54.47-8.14-70.51,1.44-141.95,29.11-188.33,82.24C-14.67,202.18-5.15,316.25,68.17,390.72c28.05,28.48,60.88,41.83,100.27,45.81,35.63,3.6,71.51,4.79,107.3,3.55,10.28-.35,20.57-.91,30.85-.79,17.02.2,33.98,2.24,50.99,2.28,26.25.05,52.33-5.34,71.25-24.3,17.21-17.24,30.02-40,38.63-64.6Z"></path><g id="screen"><path class="cls-18" d="M429.07,84.72v209.79c-34.69-8.3-103.39-13.96-182.48-13.96s-148.47,5.71-182.99,14.08h-4.07V83.57c32.96,8.93,104.33,15.12,187.06,15.12s147.79-5.66,182.48-13.96Z"></path><path class="cls-2" d="M422.31,88.54v202.11c-33.42-8-99.6-13.45-175.8-13.45s-143.03,5.5-176.3,13.57h-3.92V87.43c31.76,8.6,100.51,14.57,180.21,14.57s142.38-5.45,175.8-13.45Z"></path><path class="cls-17" d="M356.61,274.44c-33.06,0-59.95-26.89-59.95-59.95s26.89-59.95,59.95-59.95,59.95,26.89,59.95,59.95-26.89,59.95-59.95,59.95ZM356.61,158.54c-30.85,0-55.95,25.1-55.95,55.95s25.1,55.95,55.95,55.95,55.95-25.1,55.95-55.95-25.1-55.95-55.95-55.95Z"></path><path class="cls-17" d="M298.66,166.01c-12.07,0-21.89-9.82-21.89-21.89s9.82-21.89,21.89-21.89,21.89,9.82,21.89,21.89-9.82,21.89-21.89,21.89ZM298.66,126.23c-9.86,0-17.89,8.02-17.89,17.89s8.02,17.89,17.89,17.89,17.89-8.02,17.89-17.89-8.02-17.89-17.89-17.89Z"></path><path class="cls-8" d="M115.34,181.39c-.05,3.95-3.29,7.11-7.24,7.06-2.95-.04-5.58-1.89-6.61-4.65-.27-.76-.41-1.56-.41-2.37,0-3.95,3.2-7.14,7.15-7.14,3.92-.01,7.1,3.16,7.11,7.08,0,.01,0,.02,0,.04Z"></path><path class="cls-7" d="M113.18,178.33c0,3.93-3.18,7.13-7.11,7.14-1.68,0-3.3-.59-4.58-1.67-.27-.76-.41-1.56-.41-2.37,0-3.95,3.2-7.14,7.15-7.14,1.68,0,3.31.58,4.59,1.67.26.77.39,1.57.37,2.38Z"></path><path class="cls-8" d="M82.73,242.88c1.43-.99,3.39-.63,4.38.8.76,1.1.74,2.55-.04,3.63-.21.3-.46.55-.76.76-1.4,1.04-3.37.74-4.4-.65-1.04-1.4-.74-3.37.65-4.4h0c.05-.04.11-.08.16-.11v-.02Z"></path><path class="cls-7" d="M82.16,244.43c1.42-.99,3.37-.64,4.36.78,0,0,0,0,0,0,.43.61.62,1.35.55,2.09-.21.3-.46.55-.76.76-1.43.99-3.39.64-4.38-.79-.42-.61-.62-1.35-.55-2.09.21-.3.47-.56.77-.76Z"></path><path class="cls-8" d="M80.5,219.73c1.44-.98,3.4-.61,4.38.83.74,1.09.73,2.53-.03,3.6-.21.3-.47.56-.77.77-1.42,1-3.38.66-4.37-.76,0,0,0,0,0,0h0c-1-1.44-.64-3.42.8-4.43h0Z"></path><path class="cls-7" d="M79.92,221.29c1.43-.99,3.39-.63,4.38.8.42.61.61,1.34.55,2.07-.21.3-.47.56-.77.77-1.42,1-3.38.66-4.37-.76,0,0,0,0,0,0h0c-.42-.61-.62-1.34-.55-2.08.21-.31.47-.58.77-.8Z"></path><g class="cls-19"><polygon class="cls-18" points="86.53 244.61 86.15 243.58 106.87 236.08 99.65 224.46 119.22 219.17 119.5 220.23 101.36 225.14 108.52 236.66 86.53 244.61"></polygon></g><polygon class="cls-18" points="100.05 225.11 95.24 218.18 84.34 222.12 83.96 221.08 95.66 216.86 100.95 224.49 100.05 225.11"></polygon><path class="cls-8" d="M119.97,213.34c2.87-1.97,6.79-1.25,8.76,1.62,1.51,2.19,1.48,5.09-.08,7.25-.42.58-.93,1.08-1.53,1.48-2.86,1.98-6.78,1.27-8.76-1.59-1.98-2.86-1.27-6.78,1.59-8.76h.01Z"></path><path class="cls-7" d="M118.81,216.46c2.85-1.98,6.77-1.28,8.75,1.58.85,1.22,1.23,2.69,1.1,4.17-.42.58-.93,1.08-1.53,1.48-2.86,1.98-6.78,1.27-8.76-1.59-.84-1.21-1.23-2.68-1.1-4.15.42-.58.94-1.08,1.53-1.48Z"></path><g class="cls-19"><polygon class="cls-18" points="111.04 222.1 97.87 199.51 112.55 193.21 108.88 186.53 109.85 186 114.1 193.75 99.45 200.02 111.99 221.55 111.04 222.1"></polygon></g></g><g id="character"><path class="cls-18" d="M260.67,315.11s22.98,36.65,27.99,71.26,7.56,50.84,7.56,50.84l-26.06,2.2.98-15.83s-25.92-84.43-26.81-88.91,14.56-23.06,16.34-19.55Z"></path><path class="cls-10" d="M260.67,315.11s22.98,36.65,27.99,71.26,7.56,50.84,7.56,50.84l-26.06,2.2.98-15.83s-25.92-84.43-26.81-88.91,14.56-23.06,16.34-19.55Z"></path><path class="cls-18" d="M291.14,270.16c-.58.5-1.3.8-2.06.85-4.67.43-12.26-5.95-14.82-8.02l-9.54-7.57c-6.11-4.83-11.85-12.74-5.82-20,.18-.23.38-.45.59-.65.58-.62,1.26-1.14,2-1.56,1.58-.9,3.4-1.27,5.2-1.06,4.13.52,7.3,3.96,9.87,7.41,5,6.5,9.26,13.5,13.72,20.37,1.06,1.55,1.85,3.26,2.33,5.07.46,1.86-.11,3.82-1.5,5.15Z"></path><path class="cls-11" d="M289.09,271.02c-4.67.43-12.26-5.95-14.82-8.02l-9.54-7.57c-6.11-4.83-11.85-12.74-5.82-20,1.41-.65,2.97-.9,4.52-.72,4.19.52,7.32,3.96,9.87,7.3,5,6.54,9.26,13.52,13.72,20.48,1.08,1.53,1.87,3.24,2.33,5.06.24,1.16.15,2.37-.28,3.48Z"></path><path class="cls-18" d="M265.44,214.49c1.33,1.25,2.46,2.68,3.37,4.26l4.37,6.96c1.57,2.07,2.55,4.53,2.82,7.11.05.5-.11.99-.43,1.37-.29.25-.64.41-1.02.48-4.85,1.21-9.82,1.83-14.82,1.85-1.72.01-3.43-.37-4.98-1.11-2.51-1.66-4.28-4.22-4.95-7.15-1.33-3.93-5.22-12.09-.87-15.34,3.94-2.78,12.98-1.44,16.5,1.56Z"></path><path class="cls-9" d="M266.09,214.49c1.33,1.24,2.47,2.68,3.37,4.26l4.37,6.96c1.57,2.07,2.55,4.53,2.82,7.11.05.5-.11.99-.43,1.37-.29.25-.64.42-1.02.48-4.85,1.21-9.82,1.83-14.82,1.85-1.7.1-3.4-.19-4.98-.83-2.5-1.66-4.27-4.22-4.93-7.15-1.35-3.93-5.2-12.08-.89-15.34,4.04-3.06,12.98-1.72,16.5,1.28Z"></path><path class="cls-18" d="M213.23,170.75c-.12,4.11,1.01,8.16,3.24,11.61.57.73,1.07,1.51,1.5,2.33.66,1.94.76,4.02.3,6.02-.72,4.85-1.54,10.02-4.82,13.69-.2.2-.35.43-.46.69-.22.65.37,1.3.87,1.85,1.65,1.52,3.35,2.98,5.07,4.44,1.76,1.6,3.73,2.96,5.85,4.04,3.05,1.37,6.49,1.61,9.7.69.46-.07.87-.34,1.11-.74.11-.34.11-.7,0-1.04-.87-4.24-1.54-8.56-1.98-12.96-.13-.92-.13-1.84,0-2.76.21-.8.48-1.58.81-2.33.79-2.31,1.26-4.73,1.41-7.17.52-5.04.11-10.14-1.19-15.04-1.31-4.94-4.02-9.39-7.8-12.83-2.65-2.32-7.67-4.89-10.98-2.19-.95,1.07-1.54,2.41-1.69,3.83-.63,2.58-.95,5.22-.96,7.87Z"></path><path class="cls-15" d="M213.23,170.75c-.12,4.11,1.01,8.16,3.24,11.61.57.73,1.07,1.51,1.5,2.33.66,1.94.76,4.02.3,6.02-.72,4.85-1.54,10.02-4.82,13.69-.2.2-.35.43-.46.69-.22.65.37,1.3.87,1.85,1.65,1.52,3.35,2.98,5.07,4.44,1.76,1.6,3.73,2.96,5.85,4.04,3.05,1.37,6.49,1.61,9.7.69.46-.07.87-.34,1.11-.74.11-.34.11-.7,0-1.04-.87-4.24-1.54-8.56-1.98-12.96-.13-.92-.13-1.84,0-2.76.21-.8.48-1.58.81-2.33.79-2.31,1.26-4.73,1.41-7.17.52-5.04.11-10.14-1.19-15.04-1.31-4.94-4.02-9.39-7.8-12.83-2.65-2.32-7.67-4.89-10.98-2.19-.95,1.07-1.54,2.41-1.69,3.83-.63,2.58-.95,5.22-.96,7.87Z"></path><path class="cls-18" d="M210.23,154.93c.09-1.8.63-3.55,1.59-5.07l2.85-5.46c.66-1.38,1.48-2.68,2.46-3.85,1.78-1.82,4.06-3.05,6.56-3.54,3.77-.72,7.63-.87,11.45-.44,2.05.08,4.09.37,6.07.87,5.73,1.99,10.23,6.51,12.21,12.24,1.87,5.69,2.65,11.67,2.32,17.65.03,2.99-.16,5.97-.59,8.93-.92,4.67-2.49,9.19-4.65,13.43-.94,2.16-2.19,4.18-3.7,5.98-2.95,3.85-8.46,4.58-12.31,1.64,0,0,0,0,0,0-.61-.47-1.16-1.01-1.63-1.63-1.92-2.22-3.45-4.76-4.5-7.5-1.42-2.74-2.21-5.77-2.32-8.85.28-1.77.39-3.56.35-5.35-.47-2.06-1.44-3.97-2.83-5.56-1.31-2.03-2.97-3.81-4.91-5.26-1.79-1.12-3.48-2.39-5.04-3.82-1.22-1.37-3.28-1.94-3.37-4.39Z"></path><path class="cls-18" d="M263.83,283.37c.53,4.68.12,9.43-1.22,13.95-.17.55-.48,1.05-.91,1.44-.67.36-1.43.51-2.19.43-5.02-.14-10.04.12-15.02.78-2.96.41-5.89.93-8.83,1.37-1.85.28-3.7.52-5.45.65-5.8.44-11.63-.06-17.26-1.48-.61-.11-1.18-.35-1.69-.7-.65-.53-1.15-1.23-1.44-2.02l-11.63-23.85c-2.17-4.25-4.07-8.64-5.69-13.13-1.56-4.59-2.5-9.37-2.8-14.21-.17-2.86-.11-5.73.19-8.58-.29-2.55,1.51-4.86,4.06-5.19.25-.02.49-.02.74,0,2.73-.29,5.44-.79,8.09-1.48,2.69-.69,4.99-2.43,6.37-4.83,1.74-3.37.65-7.5-.91-10.96-.93-2.41-2.47-4.53-4.48-6.15-1.24-.85-2.91-2.04-2.33-3.39.2-.38.5-.7.87-.93,4.83-3.39,9.74-1.33,13.61,2.09,4.53,3.78,10.44,5.46,16.28,4.65,3.33-.43,1.85-3.7,1.76-6.2,2.72.76,5.41,1.67,8.06,2.65,2.52.83,4.87,2.08,6.96,3.7,1.79,1.71,3.31,3.68,4.52,5.83,1.33,2.09,2.63,4.19,3.7,6.35,9.8,18.28,6.09,39.21,6.63,59.21Z"></path><path class="cls-16" d="M235.66,301.28c-1.85.28-3.7.5-5.45.65-5.8.43-11.63-.08-17.26-1.5-.6-.11-1.17-.35-1.69-.69-.65-.54-1.14-1.25-1.44-2.04l-11.63-23.85c-2.19-4.28-4.11-8.69-5.74-13.21-1.56-4.56-2.5-9.32-2.8-14.13,1.98-1.49,4.35-2.37,6.82-2.56,3.63-.38,7.21-1.16,10.67-2.33,1.31-.46,11.63-4.24,11.63-5.7.7,4.96-4.13,8.78-8.3,11.61-1.3.7-2.35,1.78-3.02,3.09-.41,1.38-.41,2.86,0,4.24,2.21,10.21,4.96,20.3,8.22,30.23.76,3.02,2.19,5.84,4.19,8.24,4.13,4.35,10.83,4.72,15.8,7.95Z"></path><path class="cls-18" d="M181,290.2c-.82,2.24-2.08,4.29-3.7,6.04-1.69,1.78-4.25,2.41-6.57,1.63-.65-.28-1.23-.7-1.7-1.22-1.6-2.35-2.35-5.17-2.11-8,.07-14.49,1.93-28.92,5.56-42.95.94-3.7,1.65-10.28,5.35-12.39,1.75-.49,3.57-.64,5.37-.46,4.65.17,10.67,1.13,10.8,2.65,1.82,18.87-5.19,37.41-12.98,54.71Z"></path><path class="cls-14" d="M174.26,289.48c-.81,2.25-2.07,4.3-3.7,6.04-.46.44-.98.82-1.54,1.13-1.6-2.35-2.35-5.17-2.11-8,.07-14.49,1.93-28.92,5.56-42.95.94-3.7,1.65-10.28,5.35-12.39,1.75-.49,3.57-.64,5.37-.46,2.32.48,3.96,1.11,4.06,1.85,1.83,18.95-5.19,37.49-12.98,54.78Z"></path><path class="cls-18" d="M195.02,207.56c-4.4,2.28-7.63,6.32-8.89,11.11-1.63,4.78-1.09,10.02,1.46,14.37,3.82,5.52,11.06,7.48,17.15,4.65,1.01-.51,1.96-1.13,2.83-1.85,5.46-4.93,6.98-12.89,3.7-19.48-3.35-6.7-7.67-12.76-16.26-8.8Z"></path><path class="cls-12" d="M195.02,207.56c-4.4,2.28-7.63,6.32-8.89,11.11-1.63,4.78-1.09,10.02,1.46,14.37,3.82,5.52,11.06,7.48,17.15,4.65,1.01-.51,1.96-1.13,2.83-1.85,5.46-4.93,6.98-12.89,3.7-19.48-3.35-6.7-7.67-12.76-16.26-8.8Z"></path><path class="cls-18" d="M194.71,242.44c2.34-.67,4.23-2.39,5.13-4.65,1.86-3.18,3.27-6.59,4.2-10.15.93-3.61.33-7.44-1.65-10.59-2.26-2.66-5.16-4.7-8.43-5.93-2.43-1.32-5.08-2.17-7.82-2.5-5.68,0-10.76,3.52-12.76,8.83-1.85,5.27-1.85,11.01,0,16.28,1.85,5.21,4.02,10.31,6.48,15.26,1.13,2.59,6.13-2.32,6.76-2.82,2.49-1.64,5.21-2.9,8.08-3.74Z"></path><path class="cls-18" d="M179.98,293.91c-2.02-.45-4.11-.53-6.17-.26-2.04.3-3.87,1.4-5.09,3.06-.65,1-1,2.16-1.02,3.35-.05,1.07.41,2.1,1.24,2.78.61.35,1.3.54,2,.54,2.35.15,4.67-.59,6.5-2.07,1.83-1.53,2.63-3.98,2.06-6.3"></path><path class="cls-18" d="M337.35,245.38c0,.26-.13.54-.2.8-2.05,5.38-5.5,10.11-9.98,13.72-6.69,6.16-14.16,11.41-22.22,15.61-5.91,3.09-14.09,5.74-19.02-.35l-.41-.52c-4.46-6.11,1.52-10.87,6.45-14.11,12.19-8.04,26.84-11.11,39.41-18.3,1.54-.89,3.54-1.85,5-.83,1.08,1.02,1.46,2.58.98,3.98Z"></path><path class="cls-13" d="M337.35,245.38c0,.26-.13.54-.2.8-2.05,5.38-5.5,10.11-9.98,13.72-6.69,6.16-14.16,11.41-22.22,15.61-5.91,3.09-14.09,5.74-19.02-.35-.28-4.32,4.2-7.74,8.02-10.28,12.17-8.06,26.8-11.11,39.52-18.28,1.13-.82,2.49-1.25,3.89-1.22Z"></path><path class="cls-18" d="M336.15,233.92c.7-4.33,2.11-9.06,5.87-11.28.43-.22.95-.06,1.17.37.03.05.05.11.07.17.14.5.08,1.04-.15,1.5-.54,1.5-1.48,2.78-2.11,4.24-.76,1.4-.8,3.08-.11,4.52,5.16-2.96,9.04-7.73,10.89-13.39.18-.75.51-1.46.96-2.09.5-.59,1.31-.8,2.04-.54-.48,4.97-1.73,9.83-3.7,14.41l7.89-10.5c-.08,4.72-1.51,9.32-4.13,13.24,2.46-2.5,4.71-5.19,6.74-8.06.93,5.06-2.61,9.7-5.93,13.63,1.8-1.83,3.88-3.36,6.17-4.54-4.15,8.61-13.65,13.8-22.56,16.13-3.96,1.06-7.72.67-6.78-4.13s2.91-9.04,3.67-13.69Z"></path><path class="cls-18" d="M209.32,317.41c-.39,2.62.84,5.22,3.13,6.56,7.8,6.04,18.15,9.26,23.71,17.37.99,1.85,2.34,3.49,3.96,4.82,1.92.95,4.06,1.35,6.19,1.15,2.28.27,4.56-.4,6.33-1.85.66-.79,1.15-1.7,1.44-2.69,4.32-11.42,6.73-23.47,7.15-35.67,0-2.65-.24-5.82-2.57-6.98-1.3-.54-2.73-.69-4.11-.44l-31.26,2.56c-3.7.31-8.87-.44-11.33,2.33-2.46,2.78-2.63,9.7-2.63,12.85Z"></path><path class="cls-6" d="M229.69,305.24c-1.23,1.67-2.55,3.3-3.94,4.89,6.65,1.67,11.11,7.95,13.95,14.17,2.93,5.95,4.52,12.47,4.67,19.09.03.42-.04.84-.2,1.22-.5.77-1.47,1.09-2.33.78-.84-.32-1.58-.84-2.19-1.5-7.04-6.59-14.65-12.55-22.74-17.8-1.31-.76-2.52-1.68-3.61-2.74-1.22-1.32-2.1-2.91-2.56-4.65-1.13-3.82-.61-10.72,3.3-12.96,3.91-2.24,11.54-.5,15.67-.5Z"></path><path class="cls-18" d="M214.23,320.46s-17.48,31.31-22.5,65.91c-5.01,34.6-7.56,50.84-7.56,50.84l26.06,2.2-.98-15.83s25.92-84.43,26.81-88.91-20.05-17.72-21.83-14.21Z"></path><path class="cls-3" d="M214.23,320.46s-17.48,31.31-22.5,65.91c-5.01,34.6-7.56,50.84-7.56,50.84l26.06,2.2-.98-15.83s25.92-84.43,26.81-88.91-20.05-17.72-21.83-14.21Z"></path><path class="cls-4" d="M240.06,166.71c-1.28-.27-2.61.1-3.57.98-.44.82-.56,1.77-.33,2.67.05,1.04.17,2.07.37,3.09.03.21.11.41.22.59.21.21.48.33.78.35,5.66,1.11,11.44,1.48,17.19,1.09.44.02.87-.1,1.24-.33.39-.43.6-.98.59-1.56.15-2.08.15-4.18,0-6.26,0-1.46-1.3-.85-2.32-.74-1.56.19-3.17.2-4.65.26-3.19.02-6.45,0-9.52-.15Z"></path><path class="cls-18" d="M126.92,278.7c14.06,3.31,29.03,1.82,43.01,5.95,5.68,1.66,12.82,4.45,10.36,11.6l-.09.06c-2.76,7.73-11.54,7.63-18.26,6.36-8.92-1.7-17.57-4.55-25.76-8.46-5.33-2.16-10-5.69-13.53-10.23h0c-.87-1.47-1.55-3.41-.49-4.74,1.11-1.39,3.27-1.04,4.77-.55Z"></path><path class="cls-5" d="M127.05,283.78c14.21,3.5,29.04,1.84,43.04,5.96,3.97,1.25,8.81,3.07,10.27,6.56-2.76,7.73-11.54,7.63-18.26,6.36-8.92-1.7-17.57-4.55-25.76-8.46-5.35-2.15-10.05-5.68-13.6-10.22h0c1.37-.59,2.9-.66,4.32-.19Z"></path><path class="cls-18" d="M129.43,282.68c2.29,4.32-1.12,5.87-5.27,5.94-9.17.39-19.77-1.78-26.24-8.79,2.52.44,4.95,1.29,7.2,2.52-4.35-2.79-9-6.3-9.67-11.32,2.78,2.13,5.72,4.05,8.8,5.74-3.68-3.01-6.41-7.02-7.86-11.55l10.62,7.77c-3.23-3.79-5.86-8.05-7.78-12.64.6-.56,1.52-.61,2.18-.12.63.48,1.15,1.08,1.53,1.78,3.45,4.93,8.62,8.4,14.5,9.73.22-1.59-.32-3.18-1.45-4.32-1.15-1.07-2.23-2.21-3.25-3.4-.36-.39-.56-.89-.56-1.42h0c.06-.51.52-.88,1.03-.83,4.25,1.03,6.94,5.16,8.92,9.06,2.12,4.3,5.02,7.52,7.31,11.83Z"></path></g></svg>